<svg width="193" height="68" viewBox="0 0 193 68" fill="none" xmlns="http://www.w3.org/2000/svg">
<rect width="193" height="68" rx="12" fill="url(#paint0_linear_750_4)"/>
<path d="M70.852 26V17.6H73.576C74.56 17.6 75.368 17.772 76 18.116C76.64 18.46 77.112 18.948 77.416 19.58C77.728 20.204 77.884 20.948 77.884 21.812C77.884 22.668 77.728 23.412 77.416 24.044C77.112 24.668 76.64 25.152 76 25.496C75.368 25.832 74.56 26 73.576 26H70.852ZM72.124 24.92H73.528C74.288 24.92 74.888 24.796 75.328 24.548C75.776 24.3 76.096 23.944 76.288 23.48C76.488 23.016 76.588 22.46 76.588 21.812C76.588 21.164 76.488 20.604 76.288 20.132C76.096 19.66 75.776 19.3 75.328 19.052C74.888 18.796 74.288 18.668 73.528 18.668H72.124V24.92ZM81.7855 26.144C81.2175 26.144 80.7055 26.016 80.2495 25.76C79.8015 25.496 79.4455 25.132 79.1815 24.668C78.9175 24.196 78.7855 23.648 78.7855 23.024C78.7855 22.4 78.9175 21.856 79.1815 21.392C79.4535 20.92 79.8175 20.556 80.2735 20.3C80.7295 20.036 81.2375 19.904 81.7975 19.904C82.3655 19.904 82.8735 20.036 83.3215 20.3C83.7775 20.556 84.1375 20.92 84.4015 21.392C84.6735 21.856 84.8095 22.4 84.8095 23.024C84.8095 23.648 84.6735 24.196 84.4015 24.668C84.1375 25.132 83.7775 25.496 83.3215 25.76C82.8655 26.016 82.3535 26.144 81.7855 26.144ZM81.7855 25.052C82.0895 25.052 82.3695 24.976 82.6255 24.824C82.8895 24.672 83.1015 24.448 83.2615 24.152C83.4215 23.848 83.5015 23.472 83.5015 23.024C83.5015 22.576 83.4215 22.204 83.2615 21.908C83.1095 21.604 82.9015 21.376 82.6375 21.224C82.3815 21.072 82.1015 20.996 81.7975 20.996C81.4935 20.996 81.2095 21.072 80.9455 21.224C80.6895 21.376 80.4815 21.604 80.3215 21.908C80.1615 22.204 80.0815 22.576 80.0815 23.024C80.0815 23.472 80.1615 23.848 80.3215 24.152C80.4815 24.448 80.6895 24.672 80.9455 24.824C81.2015 24.976 81.4815 25.052 81.7855 25.052ZM86.9104 26L85.1584 20.048H86.4304L87.5824 24.536L88.8784 20.048H90.2944L91.5904 24.536L92.7424 20.048H94.0144L92.2624 26H90.9544L89.5864 21.32L88.2184 26H86.9104ZM94.8223 26V20.048H95.9503L96.0463 21.092C96.2303 20.724 96.4983 20.436 96.8503 20.228C97.2103 20.012 97.6223 19.904 98.0863 19.904C98.8063 19.904 99.3703 20.128 99.7783 20.576C100.194 21.024 100.402 21.692 100.402 22.58V26H99.1423V22.712C99.1423 21.56 98.6703 20.984 97.7263 20.984C97.2543 20.984 96.8623 21.152 96.5503 21.488C96.2463 21.824 96.0943 22.304 96.0943 22.928V26H94.8223ZM101.66 26V17.36H102.932V26H101.66ZM107.087 26.144C106.519 26.144 106.007 26.016 105.551 25.76C105.103 25.496 104.747 25.132 104.483 24.668C104.219 24.196 104.087 23.648 104.087 23.024C104.087 22.4 104.219 21.856 104.483 21.392C104.755 20.92 105.119 20.556 105.575 20.3C106.031 20.036 106.539 19.904 107.099 19.904C107.667 19.904 108.175 20.036 108.623 20.3C109.079 20.556 109.439 20.92 109.703 21.392C109.975 21.856 110.111 22.4 110.111 23.024C110.111 23.648 109.975 24.196 109.703 24.668C109.439 25.132 109.079 25.496 108.623 25.76C108.167 26.016 107.655 26.144 107.087 26.144ZM107.087 25.052C107.391 25.052 107.671 24.976 107.927 24.824C108.191 24.672 108.403 24.448 108.563 24.152C108.723 23.848 108.803 23.472 108.803 23.024C108.803 22.576 108.723 22.204 108.563 21.908C108.411 21.604 108.203 21.376 107.939 21.224C107.683 21.072 107.403 20.996 107.099 20.996C106.795 20.996 106.511 21.072 106.247 21.224C105.991 21.376 105.783 21.604 105.623 21.908C105.463 22.204 105.383 22.576 105.383 23.024C105.383 23.472 105.463 23.848 105.623 24.152C105.783 24.448 105.991 24.672 106.247 24.824C106.503 24.976 106.783 25.052 107.087 25.052ZM113.263 26.144C112.759 26.144 112.343 26.06 112.015 25.892C111.687 25.724 111.443 25.504 111.283 25.232C111.123 24.952 111.043 24.648 111.043 24.32C111.043 23.744 111.267 23.288 111.715 22.952C112.163 22.616 112.803 22.448 113.635 22.448H115.195V22.34C115.195 21.876 115.067 21.528 114.811 21.296C114.563 21.064 114.239 20.948 113.839 20.948C113.487 20.948 113.179 21.036 112.915 21.212C112.659 21.38 112.503 21.632 112.447 21.968H111.175C111.215 21.536 111.359 21.168 111.607 20.864C111.863 20.552 112.183 20.316 112.567 20.156C112.959 19.988 113.387 19.904 113.851 19.904C114.683 19.904 115.327 20.124 115.783 20.564C116.239 20.996 116.467 21.588 116.467 22.34V26H115.363L115.255 24.98C115.087 25.308 114.843 25.584 114.523 25.808C114.203 26.032 113.783 26.144 113.263 26.144ZM113.515 25.112C113.859 25.112 114.147 25.032 114.379 24.872C114.619 24.704 114.803 24.484 114.931 24.212C115.067 23.94 115.151 23.64 115.183 23.312H113.767C113.263 23.312 112.903 23.4 112.687 23.576C112.479 23.752 112.375 23.972 112.375 24.236C112.375 24.508 112.475 24.724 112.675 24.884C112.883 25.036 113.163 25.112 113.515 25.112ZM120.422 26.144C119.846 26.144 119.338 26.008 118.898 25.736C118.458 25.464 118.114 25.092 117.866 24.62C117.618 24.148 117.494 23.612 117.494 23.012C117.494 22.412 117.618 21.88 117.866 21.416C118.114 20.944 118.458 20.576 118.898 20.312C119.346 20.04 119.858 19.904 120.434 19.904C120.906 19.904 121.318 19.996 121.67 20.18C122.03 20.364 122.31 20.624 122.51 20.96V17.36H123.782V26H122.642L122.51 25.076C122.318 25.356 122.054 25.604 121.718 25.82C121.382 26.036 120.95 26.144 120.422 26.144ZM120.65 25.04C121.194 25.04 121.638 24.852 121.982 24.476C122.334 24.1 122.51 23.616 122.51 23.024C122.51 22.424 122.334 21.94 121.982 21.572C121.638 21.196 121.194 21.008 120.65 21.008C120.106 21.008 119.658 21.196 119.306 21.572C118.954 21.94 118.778 22.424 118.778 23.024C118.778 23.416 118.858 23.764 119.018 24.068C119.178 24.372 119.398 24.612 119.678 24.788C119.966 24.956 120.29 25.04 120.65 25.04ZM130.713 26.144C130.145 26.144 129.633 26.016 129.177 25.76C128.729 25.496 128.373 25.132 128.109 24.668C127.845 24.196 127.713 23.648 127.713 23.024C127.713 22.4 127.845 21.856 128.109 21.392C128.381 20.92 128.745 20.556 129.201 20.3C129.657 20.036 130.165 19.904 130.725 19.904C131.293 19.904 131.801 20.036 132.249 20.3C132.705 20.556 133.065 20.92 133.329 21.392C133.601 21.856 133.737 22.4 133.737 23.024C133.737 23.648 133.601 24.196 133.329 24.668C133.065 25.132 132.705 25.496 132.249 25.76C131.793 26.016 131.281 26.144 130.713 26.144ZM130.713 25.052C131.017 25.052 131.297 24.976 131.553 24.824C131.817 24.672 132.029 24.448 132.189 24.152C132.349 23.848 132.429 23.472 132.429 23.024C132.429 22.576 132.349 22.204 132.189 21.908C132.037 21.604 131.829 21.376 131.565 21.224C131.309 21.072 131.029 20.996 130.725 20.996C130.421 20.996 130.137 21.072 129.873 21.224C129.617 21.376 129.409 21.604 129.249 21.908C129.089 22.204 129.009 22.576 129.009 23.024C129.009 23.472 129.089 23.848 129.249 24.152C129.409 24.448 129.617 24.672 129.873 24.824C130.129 24.976 130.409 25.052 130.713 25.052ZM134.873 26V20.048H136.001L136.097 21.092C136.281 20.724 136.549 20.436 136.901 20.228C137.261 20.012 137.673 19.904 138.137 19.904C138.857 19.904 139.421 20.128 139.829 20.576C140.245 21.024 140.453 21.692 140.453 22.58V26H139.193V22.712C139.193 21.56 138.721 20.984 137.777 20.984C137.305 20.984 136.913 21.152 136.601 21.488C136.297 21.824 136.145 22.304 136.145 22.928V26H134.873ZM146.99 26C146.406 26 145.942 25.86 145.598 25.58C145.254 25.292 145.082 24.784 145.082 24.056V21.116H144.062V20.048H145.082L145.238 18.536H146.354V20.048H148.034V21.116H146.354V24.056C146.354 24.384 146.422 24.612 146.558 24.74C146.702 24.86 146.946 24.92 147.29 24.92H147.974V26H146.99ZM149.106 26V17.36H150.378V21.008C150.578 20.664 150.854 20.396 151.206 20.204C151.566 20.004 151.962 19.904 152.394 19.904C153.106 19.904 153.666 20.128 154.074 20.576C154.482 21.024 154.686 21.692 154.686 22.58V26H153.426V22.712C153.426 21.56 152.966 20.984 152.046 20.984C151.566 20.984 151.166 21.152 150.846 21.488C150.534 21.824 150.378 22.304 150.378 22.928V26H149.106ZM158.728 26.144C158.144 26.144 157.624 26.016 157.168 25.76C156.72 25.496 156.368 25.132 156.112 24.668C155.856 24.204 155.728 23.664 155.728 23.048C155.728 22.424 155.852 21.876 156.1 21.404C156.356 20.932 156.708 20.564 157.156 20.3C157.612 20.036 158.14 19.904 158.74 19.904C159.324 19.904 159.832 20.036 160.264 20.3C160.696 20.556 161.032 20.9 161.272 21.332C161.512 21.764 161.632 22.24 161.632 22.76C161.632 22.84 161.628 22.928 161.62 23.024C161.62 23.112 161.616 23.212 161.608 23.324H156.976C157.016 23.9 157.204 24.34 157.54 24.644C157.884 24.94 158.28 25.088 158.728 25.088C159.088 25.088 159.388 25.008 159.628 24.848C159.876 24.68 160.06 24.456 160.18 24.176H161.452C161.292 24.736 160.972 25.204 160.492 25.58C160.02 25.956 159.432 26.144 158.728 26.144ZM158.728 20.948C158.304 20.948 157.928 21.076 157.6 21.332C157.272 21.58 157.072 21.956 157 22.46H160.36C160.336 21.996 160.172 21.628 159.868 21.356C159.564 21.084 159.184 20.948 158.728 20.948ZM70.546 50L75.964 35.3H78.4L83.776 50H81.424L80.164 46.409H74.158L72.898 50H70.546ZM74.788 44.645H79.534L77.161 37.946L74.788 44.645ZM85.322 54.62V39.584H87.317L87.548 41.201C87.884 40.711 88.346 40.277 88.934 39.899C89.522 39.521 90.278 39.332 91.202 39.332C92.21 39.332 93.099 39.57 93.869 40.046C94.639 40.522 95.241 41.173 95.675 41.999C96.123 42.825 96.347 43.763 96.347 44.813C96.347 45.863 96.123 46.801 95.675 47.627C95.241 48.439 94.639 49.083 93.869 49.559C93.099 50.021 92.203 50.252 91.181 50.252C90.369 50.252 89.648 50.091 89.018 49.769C88.402 49.447 87.912 48.992 87.548 48.404V54.62H85.322ZM90.803 48.32C91.755 48.32 92.539 47.998 93.155 47.354C93.771 46.696 94.079 45.842 94.079 44.792C94.079 44.106 93.939 43.497 93.659 42.965C93.379 42.433 92.994 42.02 92.504 41.726C92.014 41.418 91.447 41.264 90.803 41.264C89.851 41.264 89.067 41.593 88.451 42.251C87.849 42.909 87.548 43.756 87.548 44.792C87.548 45.842 87.849 46.696 88.451 47.354C89.067 47.998 89.851 48.32 90.803 48.32ZM98.3346 54.62V39.584H100.33L100.561 41.201C100.897 40.711 101.359 40.277 101.947 39.899C102.535 39.521 103.291 39.332 104.215 39.332C105.223 39.332 106.112 39.57 106.882 40.046C107.652 40.522 108.254 41.173 108.688 41.999C109.136 42.825 109.36 43.763 109.36 44.813C109.36 45.863 109.136 46.801 108.688 47.627C108.254 48.439 107.652 49.083 106.882 49.559C106.112 50.021 105.216 50.252 104.194 50.252C103.382 50.252 102.661 50.091 102.031 49.769C101.415 49.447 100.925 48.992 100.561 48.404V54.62H98.3346ZM103.816 48.32C104.768 48.32 105.552 47.998 106.168 47.354C106.784 46.696 107.092 45.842 107.092 44.792C107.092 44.106 106.952 43.497 106.672 42.965C106.392 42.433 106.007 42.02 105.517 41.726C105.027 41.418 104.46 41.264 103.816 41.264C102.864 41.264 102.08 41.593 101.464 42.251C100.862 42.909 100.561 43.756 100.561 44.792C100.561 45.842 100.862 46.696 101.464 47.354C102.08 47.998 102.864 48.32 103.816 48.32ZM121.153 50.252C120.075 50.252 119.13 50.063 118.318 49.685C117.506 49.307 116.869 48.768 116.407 48.068C115.959 47.368 115.728 46.535 115.714 45.569H118.066C118.08 46.353 118.353 47.018 118.885 47.564C119.417 48.11 120.166 48.383 121.132 48.383C121.986 48.383 122.651 48.18 123.127 47.774C123.617 47.354 123.862 46.822 123.862 46.178C123.862 45.66 123.743 45.24 123.505 44.918C123.281 44.596 122.966 44.33 122.56 44.12C122.168 43.91 121.713 43.721 121.195 43.553C120.677 43.385 120.131 43.203 119.557 43.007C118.423 42.629 117.569 42.139 116.995 41.537C116.435 40.935 116.155 40.144 116.155 39.164C116.141 38.338 116.33 37.617 116.722 37.001C117.128 36.385 117.688 35.909 118.402 35.573C119.13 35.223 119.977 35.048 120.943 35.048C121.895 35.048 122.728 35.223 123.442 35.573C124.17 35.923 124.737 36.413 125.143 37.043C125.549 37.659 125.759 38.38 125.773 39.206H123.421C123.421 38.828 123.323 38.471 123.127 38.135C122.931 37.785 122.644 37.498 122.266 37.274C121.888 37.05 121.426 36.938 120.88 36.938C120.18 36.924 119.599 37.099 119.137 37.463C118.689 37.827 118.465 38.331 118.465 38.975C118.465 39.549 118.633 39.99 118.969 40.298C119.305 40.606 119.767 40.865 120.355 41.075C120.943 41.271 121.615 41.502 122.371 41.768C123.099 42.006 123.75 42.293 124.324 42.629C124.898 42.965 125.353 43.406 125.689 43.952C126.039 44.498 126.214 45.191 126.214 46.031C126.214 46.773 126.025 47.466 125.647 48.11C125.269 48.74 124.702 49.258 123.946 49.664C123.19 50.056 122.259 50.252 121.153 50.252ZM132.512 50C131.49 50 130.678 49.755 130.076 49.265C129.474 48.761 129.173 47.872 129.173 46.598V41.453H127.388V39.584H129.173L129.446 36.938H131.399V39.584H134.339V41.453H131.399V46.598C131.399 47.172 131.518 47.571 131.756 47.795C132.008 48.005 132.435 48.11 133.037 48.11H134.234V50H132.512ZM140.82 50.252C139.826 50.252 138.93 50.028 138.132 49.58C137.348 49.118 136.725 48.481 136.263 47.669C135.801 46.843 135.57 45.884 135.57 44.792C135.57 43.7 135.801 42.748 136.263 41.936C136.739 41.11 137.376 40.473 138.174 40.025C138.972 39.563 139.861 39.332 140.841 39.332C141.835 39.332 142.724 39.563 143.508 40.025C144.306 40.473 144.936 41.11 145.398 41.936C145.874 42.748 146.112 43.7 146.112 44.792C146.112 45.884 145.874 46.843 145.398 47.669C144.936 48.481 144.306 49.118 143.508 49.58C142.71 50.028 141.814 50.252 140.82 50.252ZM140.82 48.341C141.352 48.341 141.842 48.208 142.29 47.942C142.752 47.676 143.123 47.284 143.403 46.766C143.683 46.234 143.823 45.576 143.823 44.792C143.823 44.008 143.683 43.357 143.403 42.839C143.137 42.307 142.773 41.908 142.311 41.642C141.863 41.376 141.373 41.243 140.841 41.243C140.309 41.243 139.812 41.376 139.35 41.642C138.902 41.908 138.538 42.307 138.258 42.839C137.978 43.357 137.838 44.008 137.838 44.792C137.838 45.576 137.978 46.234 138.258 46.766C138.538 47.284 138.902 47.676 139.35 47.942C139.798 48.208 140.288 48.341 140.82 48.341ZM148.099 50V39.584H150.094L150.283 41.558C150.647 40.872 151.151 40.333 151.795 39.941C152.453 39.535 153.244 39.332 154.168 39.332V41.663H153.559C152.943 41.663 152.39 41.768 151.9 41.978C151.424 42.174 151.039 42.517 150.745 43.007C150.465 43.483 150.325 44.148 150.325 45.002V50H148.099ZM160.241 50.252C159.219 50.252 158.309 50.028 157.511 49.58C156.727 49.118 156.111 48.481 155.663 47.669C155.215 46.857 154.991 45.912 154.991 44.834C154.991 43.742 155.208 42.783 155.642 41.957C156.09 41.131 156.706 40.487 157.49 40.025C158.288 39.563 159.212 39.332 160.262 39.332C161.284 39.332 162.173 39.563 162.929 40.025C163.685 40.473 164.273 41.075 164.693 41.831C165.113 42.587 165.323 43.42 165.323 44.33C165.323 44.47 165.316 44.624 165.302 44.792C165.302 44.946 165.295 45.121 165.281 45.317H157.175C157.245 46.325 157.574 47.095 158.162 47.627C158.764 48.145 159.457 48.404 160.241 48.404C160.871 48.404 161.396 48.264 161.816 47.984C162.25 47.69 162.572 47.298 162.782 46.808H165.008C164.728 47.788 164.168 48.607 163.328 49.265C162.502 49.923 161.473 50.252 160.241 50.252ZM160.241 41.159C159.499 41.159 158.841 41.383 158.267 41.831C157.693 42.265 157.343 42.923 157.217 43.805H163.097C163.055 42.993 162.768 42.349 162.236 41.873C161.704 41.397 161.039 41.159 160.241 41.159Z" fill="white"/>
<g clip-path="url(#clip0_750_4)">
<path d="M44.8645 34.1792C43.8742 29.1954 48.6047 26.2725 48.6047 26.2725C48.6047 26.2725 46.7616 23.6061 43.6642 22.9201C40.5682 22.2326 39.0187 23.0915 37.4723 23.7358C35.9243 24.3815 35.1519 24.3815 35.1519 24.3815C32.918 24.3815 31.285 22.0163 27.0289 23.0931C24.0967 23.8331 21.01 27.218 20.4523 31.2579C19.8946 35.2993 21.0981 40.4561 23.4185 44.4527C25.7389 48.4525 28.1026 49.9556 29.7803 49.9989C31.458 50.0406 33.1327 48.797 35.1519 48.4941C37.1726 48.1944 38.4162 49.2265 40.3983 49.7842C42.3726 50.3403 43.0647 49.8243 45.3388 47.8901C47.619 45.9559 49.683 40.4082 49.683 40.4082C49.683 40.4082 45.8548 39.1661 44.8645 34.1792Z" fill="white"/>
<path d="M40.4802 19.696C42.6739 17.4606 41.9308 14 41.9308 14C41.9308 14 38.8503 14.5407 36.7863 16.6881C34.7239 18.837 35.0653 22.2311 35.0653 22.2311C35.0653 22.2311 38.2864 21.9299 40.4802 19.696Z" fill="white"/>
</g>
<defs>
<linearGradient id="paint0_linear_750_4" x1="96.5" y1="0" x2="96.5" y2="68" gradientUnits="userSpaceOnUse">
<stop stop-color="#2A3344"/>
<stop offset="1" stop-color="#12161E"/>
</linearGradient>
<clipPath id="clip0_750_4">
<rect width="36" height="36" fill="white" transform="translate(17 14)"/>
</clipPath>
</defs>
</svg>
