<svg width="193" height="68" viewBox="0 0 193 68" fill="none" xmlns="http://www.w3.org/2000/svg">
<rect width="193" height="68" rx="12" fill="url(#paint0_linear_750_3)"/>
<path d="M70.5 26.144C69.708 26.144 69.016 25.964 68.424 25.604C67.832 25.244 67.372 24.74 67.044 24.092C66.716 23.444 66.552 22.688 66.552 21.824C66.552 20.968 66.72 20.212 67.056 19.556C67.392 18.9 67.868 18.388 68.484 18.02C69.108 17.644 69.844 17.456 70.692 17.456C71.652 17.456 72.452 17.688 73.092 18.152C73.732 18.616 74.148 19.256 74.34 20.072H72.9C72.772 19.624 72.52 19.272 72.144 19.016C71.768 18.76 71.284 18.632 70.692 18.632C69.812 18.632 69.12 18.916 68.616 19.484C68.112 20.052 67.86 20.836 67.86 21.836C67.86 22.836 68.108 23.616 68.604 24.176C69.1 24.736 69.76 25.016 70.584 25.016C71.416 25.016 72.04 24.78 72.456 24.308C72.88 23.836 73.128 23.208 73.2 22.424H70.92V21.44H74.484V26H73.32L73.212 24.764C72.932 25.204 72.58 25.544 72.156 25.784C71.732 26.024 71.18 26.144 70.5 26.144ZM75.7878 26V17.6H81.1278V18.632H77.0598V21.248H80.7678V22.256H77.0598V24.968H81.1278V26H75.7878ZM84.3713 26V18.632H81.8873V17.6H88.1153V18.632H85.6433V26H84.3713ZM91.849 26V17.6H93.121V26H91.849ZM96.5536 26V18.632H94.0696V17.6H100.298V18.632H97.8256V26H96.5536ZM107.907 26.144C107.075 26.144 106.347 25.96 105.723 25.592C105.099 25.224 104.611 24.716 104.259 24.068C103.907 23.412 103.731 22.656 103.731 21.8C103.731 20.944 103.907 20.192 104.259 19.544C104.611 18.888 105.099 18.376 105.723 18.008C106.347 17.64 107.075 17.456 107.907 17.456C108.739 17.456 109.467 17.64 110.091 18.008C110.715 18.376 111.199 18.888 111.543 19.544C111.895 20.192 112.071 20.944 112.071 21.8C112.071 22.656 111.895 23.412 111.543 24.068C111.199 24.716 110.715 25.224 110.091 25.592C109.467 25.96 108.739 26.144 107.907 26.144ZM107.907 25.004C108.483 25.004 108.983 24.876 109.407 24.62C109.839 24.364 110.175 23.996 110.415 23.516C110.655 23.036 110.775 22.464 110.775 21.8C110.775 21.136 110.655 20.564 110.415 20.084C110.175 19.604 109.839 19.236 109.407 18.98C108.983 18.724 108.483 18.596 107.907 18.596C107.331 18.596 106.827 18.724 106.395 18.98C105.963 19.236 105.627 19.604 105.387 20.084C105.155 20.564 105.039 21.136 105.039 21.8C105.039 22.464 105.155 23.036 105.387 23.516C105.627 23.996 105.963 24.364 106.395 24.62C106.827 24.876 107.331 25.004 107.907 25.004ZM113.248 26V17.6H114.52L118.732 23.924V17.6H120.004V26H118.732L114.52 19.676V26H113.248ZM73.875 50.252C72.489 50.252 71.278 49.937 70.242 49.307C69.206 48.677 68.401 47.795 67.827 46.661C67.253 45.527 66.966 44.204 66.966 42.692C66.966 41.194 67.26 39.871 67.848 38.723C68.436 37.575 69.269 36.679 70.347 36.035C71.439 35.377 72.727 35.048 74.211 35.048C75.891 35.048 77.291 35.454 78.411 36.266C79.531 37.078 80.259 38.198 80.595 39.626H78.075C77.851 38.842 77.41 38.226 76.752 37.778C76.094 37.33 75.247 37.106 74.211 37.106C72.671 37.106 71.46 37.603 70.578 38.597C69.696 39.591 69.255 40.963 69.255 42.713C69.255 44.463 69.689 45.828 70.557 46.808C71.425 47.788 72.58 48.278 74.022 48.278C75.478 48.278 76.57 47.865 77.298 47.039C78.04 46.213 78.474 45.114 78.6 43.742H74.61V42.02H80.847V50H78.81L78.621 47.837C78.131 48.607 77.515 49.202 76.773 49.622C76.031 50.042 75.065 50.252 73.875 50.252ZM87.9166 50.252C86.9226 50.252 86.0266 50.028 85.2286 49.58C84.4446 49.118 83.8216 48.481 83.3596 47.669C82.8976 46.843 82.6666 45.884 82.6666 44.792C82.6666 43.7 82.8976 42.748 83.3596 41.936C83.8356 41.11 84.4726 40.473 85.2706 40.025C86.0686 39.563 86.9576 39.332 87.9376 39.332C88.9316 39.332 89.8206 39.563 90.6046 40.025C91.4026 40.473 92.0326 41.11 92.4946 41.936C92.9706 42.748 93.2086 43.7 93.2086 44.792C93.2086 45.884 92.9706 46.843 92.4946 47.669C92.0326 48.481 91.4026 49.118 90.6046 49.58C89.8066 50.028 88.9106 50.252 87.9166 50.252ZM87.9166 48.341C88.4486 48.341 88.9386 48.208 89.3866 47.942C89.8486 47.676 90.2196 47.284 90.4996 46.766C90.7796 46.234 90.9196 45.576 90.9196 44.792C90.9196 44.008 90.7796 43.357 90.4996 42.839C90.2336 42.307 89.8696 41.908 89.4076 41.642C88.9596 41.376 88.4696 41.243 87.9376 41.243C87.4056 41.243 86.9086 41.376 86.4466 41.642C85.9986 41.908 85.6346 42.307 85.3546 42.839C85.0746 43.357 84.9346 44.008 84.9346 44.792C84.9346 45.576 85.0746 46.234 85.3546 46.766C85.6346 47.284 85.9986 47.676 86.4466 47.942C86.8946 48.208 87.3846 48.341 87.9166 48.341ZM100.068 50.252C99.0739 50.252 98.1779 50.028 97.3799 49.58C96.5959 49.118 95.9729 48.481 95.5109 47.669C95.0489 46.843 94.8179 45.884 94.8179 44.792C94.8179 43.7 95.0489 42.748 95.5109 41.936C95.9869 41.11 96.6239 40.473 97.4219 40.025C98.2199 39.563 99.1089 39.332 100.089 39.332C101.083 39.332 101.972 39.563 102.756 40.025C103.554 40.473 104.184 41.11 104.646 41.936C105.122 42.748 105.36 43.7 105.36 44.792C105.36 45.884 105.122 46.843 104.646 47.669C104.184 48.481 103.554 49.118 102.756 49.58C101.958 50.028 101.062 50.252 100.068 50.252ZM100.068 48.341C100.6 48.341 101.09 48.208 101.538 47.942C102 47.676 102.371 47.284 102.651 46.766C102.931 46.234 103.071 45.576 103.071 44.792C103.071 44.008 102.931 43.357 102.651 42.839C102.385 42.307 102.021 41.908 101.559 41.642C101.111 41.376 100.621 41.243 100.089 41.243C99.5569 41.243 99.0599 41.376 98.5979 41.642C98.1499 41.908 97.7859 42.307 97.5059 42.839C97.2259 43.357 97.0859 44.008 97.0859 44.792C97.0859 45.576 97.2259 46.234 97.5059 46.766C97.7859 47.284 98.1499 47.676 98.5979 47.942C99.0459 48.208 99.5359 48.341 100.068 48.341ZM111.056 46.808C110.51 46.808 110.006 46.745 109.544 46.619L108.641 47.501C108.795 47.599 108.984 47.683 109.208 47.753C109.432 47.823 109.747 47.886 110.153 47.942C110.559 47.998 111.112 48.054 111.812 48.11C113.198 48.236 114.199 48.572 114.815 49.118C115.431 49.65 115.739 50.364 115.739 51.26C115.739 51.876 115.571 52.457 115.235 53.003C114.913 53.563 114.402 54.011 113.702 54.347C113.016 54.697 112.134 54.872 111.056 54.872C109.6 54.872 108.417 54.592 107.507 54.032C106.611 53.486 106.163 52.653 106.163 51.533C106.163 51.099 106.275 50.665 106.499 50.231C106.737 49.811 107.108 49.412 107.612 49.034C107.318 48.908 107.059 48.775 106.835 48.635C106.625 48.481 106.436 48.327 106.268 48.173V47.669L108.074 45.821C107.262 45.121 106.856 44.204 106.856 43.07C106.856 42.384 107.017 41.761 107.339 41.201C107.675 40.627 108.158 40.172 108.788 39.836C109.418 39.5 110.174 39.332 111.056 39.332C111.644 39.332 112.19 39.416 112.694 39.584H116.579V41.054L114.731 41.159C115.067 41.733 115.235 42.37 115.235 43.07C115.235 43.77 115.067 44.4 114.731 44.96C114.409 45.52 113.933 45.968 113.303 46.304C112.687 46.64 111.938 46.808 111.056 46.808ZM111.056 45.065C111.7 45.065 112.218 44.897 112.61 44.561C113.016 44.211 113.219 43.721 113.219 43.091C113.219 42.447 113.016 41.957 112.61 41.621C112.218 41.285 111.7 41.117 111.056 41.117C110.398 41.117 109.866 41.285 109.46 41.621C109.068 41.957 108.872 42.447 108.872 43.091C108.872 43.721 109.068 44.211 109.46 44.561C109.866 44.897 110.398 45.065 111.056 45.065ZM108.263 51.323C108.263 51.925 108.529 52.373 109.061 52.667C109.593 52.975 110.258 53.129 111.056 53.129C111.826 53.129 112.449 52.961 112.925 52.625C113.401 52.303 113.639 51.869 113.639 51.323C113.639 50.917 113.478 50.567 113.156 50.273C112.834 49.993 112.225 49.818 111.329 49.748C110.657 49.706 110.062 49.643 109.544 49.559C109.054 49.825 108.718 50.112 108.536 50.42C108.354 50.728 108.263 51.029 108.263 51.323ZM118.145 50V34.88H120.371V50H118.145ZM127.642 50.252C126.62 50.252 125.71 50.028 124.912 49.58C124.128 49.118 123.512 48.481 123.064 47.669C122.616 46.857 122.392 45.912 122.392 44.834C122.392 43.742 122.609 42.783 123.043 41.957C123.491 41.131 124.107 40.487 124.891 40.025C125.689 39.563 126.613 39.332 127.663 39.332C128.685 39.332 129.574 39.563 130.33 40.025C131.086 40.473 131.674 41.075 132.094 41.831C132.514 42.587 132.724 43.42 132.724 44.33C132.724 44.47 132.717 44.624 132.703 44.792C132.703 44.946 132.696 45.121 132.682 45.317H124.576C124.646 46.325 124.975 47.095 125.563 47.627C126.165 48.145 126.858 48.404 127.642 48.404C128.272 48.404 128.797 48.264 129.217 47.984C129.651 47.69 129.973 47.298 130.183 46.808H132.409C132.129 47.788 131.569 48.607 130.729 49.265C129.903 49.923 128.874 50.252 127.642 50.252ZM127.642 41.159C126.9 41.159 126.242 41.383 125.668 41.831C125.094 42.265 124.744 42.923 124.618 43.805H130.498C130.456 42.993 130.169 42.349 129.637 41.873C129.105 41.397 128.44 41.159 127.642 41.159ZM139.569 50V35.3H144.714C145.862 35.3 146.814 35.496 147.57 35.888C148.326 36.266 148.886 36.791 149.25 37.463C149.628 38.121 149.817 38.87 149.817 39.71C149.817 40.508 149.635 41.243 149.271 41.915C148.921 42.573 148.368 43.098 147.612 43.49C146.856 43.882 145.89 44.078 144.714 44.078H141.795V50H139.569ZM141.795 42.251H144.609C145.659 42.251 146.408 42.027 146.856 41.579C147.318 41.117 147.549 40.494 147.549 39.71C147.549 38.898 147.318 38.268 146.856 37.82C146.408 37.358 145.659 37.127 144.609 37.127H141.795V42.251ZM151.513 50V34.88H153.739V50H151.513ZM159.666 50.252C158.784 50.252 158.056 50.105 157.482 49.811C156.908 49.517 156.481 49.132 156.201 48.656C155.921 48.166 155.781 47.634 155.781 47.06C155.781 46.052 156.173 45.254 156.957 44.666C157.741 44.078 158.861 43.784 160.317 43.784H163.047V43.595C163.047 42.783 162.823 42.174 162.375 41.768C161.941 41.362 161.374 41.159 160.674 41.159C160.058 41.159 159.519 41.313 159.057 41.621C158.609 41.915 158.336 42.356 158.238 42.944H156.012C156.082 42.188 156.334 41.544 156.768 41.012C157.216 40.466 157.776 40.053 158.448 39.773C159.134 39.479 159.883 39.332 160.695 39.332C162.151 39.332 163.278 39.717 164.076 40.487C164.874 41.243 165.273 42.279 165.273 43.595V50H163.341L163.152 48.215C162.858 48.789 162.431 49.272 161.871 49.664C161.311 50.056 160.576 50.252 159.666 50.252ZM160.107 48.446C160.709 48.446 161.213 48.306 161.619 48.026C162.039 47.732 162.361 47.347 162.585 46.871C162.823 46.395 162.97 45.87 163.026 45.296H160.548C159.666 45.296 159.036 45.45 158.658 45.758C158.294 46.066 158.112 46.451 158.112 46.913C158.112 47.389 158.287 47.767 158.637 48.047C159.001 48.313 159.491 48.446 160.107 48.446ZM168.338 54.62L170.837 49.139H170.228L166.112 39.584H168.527L171.719 47.291L175.058 39.584H177.41L170.69 54.62H168.338Z" fill="white"/>
<path d="M20.3505 17.5254C19.9661 17.9323 19.7388 18.564 19.7388 19.3825V48.6173C19.7388 49.4365 19.9661 50.0676 20.3505 50.4745L20.4483 50.5698L36.8251 34.1931V34V33.8068L20.4483 17.4294L20.3505 17.5254Z" fill="url(#paint1_linear_750_3)"/>
<path d="M42.2838 39.6544L36.8252 34.1931V34V33.8068L42.285 28.3469L42.4081 28.4171L48.8758 32.0921C50.7233 33.1417 50.7233 34.8591 48.8758 35.9093L42.4081 39.5843L42.2838 39.6544Z" fill="url(#paint2_linear_750_3)"/>
<path d="M42.4082 39.5835L36.8252 34L20.3506 50.4745C20.9597 51.1191 21.9649 51.199 23.0976 50.5556L42.4082 39.5835Z" fill="url(#paint3_linear_750_3)"/>
<path d="M42.4082 28.4164L23.0976 17.4443C21.9649 16.801 20.9597 16.8808 20.3506 17.5255L36.8252 34L42.4082 28.4164Z" fill="url(#paint4_linear_750_3)"/>
<defs>
<linearGradient id="paint0_linear_750_3" x1="96.5" y1="0" x2="96.5" y2="68" gradientUnits="userSpaceOnUse">
<stop stop-color="#2A3344"/>
<stop offset="1" stop-color="#12161E"/>
</linearGradient>
<linearGradient id="paint1_linear_750_3" x1="35.3728" y1="19.0743" x2="13.1885" y2="41.2586" gradientUnits="userSpaceOnUse">
<stop stop-color="#00A0FF"/>
<stop offset="0.0066" stop-color="#00A2FF"/>
<stop offset="0.2601" stop-color="#00BEFF"/>
<stop offset="0.5122" stop-color="#00D2FF"/>
<stop offset="0.7604" stop-color="#00DFFF"/>
<stop offset="1" stop-color="#00E3FF"/>
</linearGradient>
<linearGradient id="paint2_linear_750_3" x1="51.2812" y1="34.0006" x2="19.2959" y2="34.0006" gradientUnits="userSpaceOnUse">
<stop stop-color="#FFE000"/>
<stop offset="0.4087" stop-color="#FFBD00"/>
<stop offset="0.7754" stop-color="#FFA600"/>
<stop offset="1" stop-color="#FF9C00"/>
</linearGradient>
<linearGradient id="paint3_linear_750_3" x1="39.3745" y1="37.0339" x2="9.29079" y2="67.1176" gradientUnits="userSpaceOnUse">
<stop stop-color="#FF3743"/>
<stop offset="1" stop-color="#E30864"/>
</linearGradient>
<linearGradient id="paint4_linear_750_3" x1="16.2024" y1="7.79403" x2="29.6361" y2="21.2277" gradientUnits="userSpaceOnUse">
<stop stop-color="#00A06F"/>
<stop offset="0.0685" stop-color="#00A86E"/>
<stop offset="0.4762" stop-color="#00CF6E"/>
<stop offset="0.8009" stop-color="#00E76D"/>
<stop offset="1" stop-color="#00EF6D"/>
</linearGradient>
</defs>
</svg>
