<svg width="156" height="153" viewBox="0 0 156 153" fill="none" xmlns="http://www.w3.org/2000/svg">
<path d="M-38.5606 -51.153C-50.1883 -38.6239 -59.0414 -23.7823 -64.5415 -7.59807C-70.0416 8.58617 -72.0649 25.7488 -70.4791 42.7684C-68.8934 59.788 -63.7343 76.2815 -55.339 91.1711C-46.9437 106.061 -35.5012 119.011 -21.759 129.177C-8.01691 139.342 7.71549 146.493 24.4102 150.163C41.1048 153.833 58.386 153.94 75.1245 150.475C91.8629 147.01 107.682 140.052 121.548 130.057C135.414 120.061 147.015 107.252 155.592 92.4662L114.64 68.7083C109.405 77.7323 102.324 85.5501 93.8615 91.6508C85.3987 97.7516 75.7438 101.998 65.5279 104.113C55.3119 106.227 44.7646 106.163 34.5754 103.923C24.3861 101.683 14.7842 97.318 6.39693 91.1138C-1.99031 84.9095 -8.97405 77.0054 -14.0979 67.9178C-19.2218 58.8303 -22.3706 48.7638 -23.3384 38.3762C-24.3062 27.9887 -23.0714 17.5138 -19.7145 7.63606C-16.3576 -2.24167 -10.9543 -11.2999 -3.85758 -18.9468L-38.5606 -51.153Z" fill="#CEFCF4"/>
</svg>
