<svg width="185" height="136" viewBox="0 0 185 136" fill="none" xmlns="http://www.w3.org/2000/svg">
<path d="M243 14.5C243 -9.53043 235.874 -33.0212 222.524 -53.0018C209.173 -72.9824 190.197 -88.5553 167.996 -97.7514C145.795 -106.947 121.365 -109.354 97.7965 -104.665C74.2278 -99.9773 52.5786 -88.4056 35.5865 -71.4135C18.5944 -54.4214 7.02269 -32.7722 2.33459 -9.20348C-2.35352 14.3652 0.0525896 38.7948 9.24864 60.996C18.4447 83.1973 34.0176 102.173 53.9982 115.524C73.9788 128.874 97.4696 136 121.5 136V88.6551C106.834 88.6551 92.4964 84.306 80.3016 76.1577C68.1069 68.0095 58.6022 56.428 52.9896 42.8779C47.377 29.3279 45.9085 14.4177 48.7698 0.0330582C51.631 -14.3516 58.6936 -27.5648 69.0644 -37.9356C79.4352 -48.3064 92.6484 -55.369 107.033 -58.2302C121.418 -61.0915 136.328 -59.623 149.878 -54.0104C163.428 -48.3978 175.009 -38.8931 183.158 -26.6984C191.306 -14.5036 195.655 -0.166496 195.655 14.5H243Z" fill="#FCEAEA"/>
</svg>
