<svg width="141" height="141" viewBox="0 0 141 141" fill="none" xmlns="http://www.w3.org/2000/svg">
<mask id="path-1-inside-1_1_3" fill="white">
<path d="M10.2545 5.12727C10.2545 7.95899 7.95899 10.2545 5.12727 10.2545C2.29556 10.2545 0 7.95899 0 5.12727C0 2.29556 2.29556 0 5.12727 0C7.95899 0 10.2545 2.29556 10.2545 5.12727Z"/>
<path d="M10.2545 19.6545C10.2545 22.4863 7.95899 24.7818 5.12727 24.7818C2.29556 24.7818 0 22.4863 0 19.6545C0 16.8228 2.29556 14.5273 5.12727 14.5273C7.95899 14.5273 10.2545 16.8228 10.2545 19.6545Z"/>
<path d="M10.2545 34.1818C10.2545 37.0135 7.95899 39.3091 5.12727 39.3091C2.29556 39.3091 0 37.0135 0 34.1818C0 31.3501 2.29556 29.0545 5.12727 29.0545C7.95899 29.0545 10.2545 31.3501 10.2545 34.1818Z"/>
<path d="M10.2545 48.7091C10.2545 51.5408 7.95899 53.8364 5.12727 53.8364C2.29556 53.8364 0 51.5408 0 48.7091C0 45.8774 2.29556 43.5818 5.12727 43.5818C7.95899 43.5818 10.2545 45.8774 10.2545 48.7091Z"/>
<path d="M10.2545 63.2364C10.2545 66.0681 7.95899 68.3636 5.12727 68.3636C2.29556 68.3636 0 66.0681 0 63.2364C0 60.4047 2.29556 58.1091 5.12727 58.1091C7.95899 58.1091 10.2545 60.4047 10.2545 63.2364Z"/>
<path d="M10.2545 77.7636C10.2545 80.5954 7.95899 82.8909 5.12727 82.8909C2.29556 82.8909 0 80.5954 0 77.7636C0 74.9319 2.29556 72.6364 5.12727 72.6364C7.95899 72.6364 10.2545 74.9319 10.2545 77.7636Z"/>
<path d="M10.2545 92.2909C10.2545 95.1226 7.95899 97.4182 5.12727 97.4182C2.29556 97.4182 0 95.1226 0 92.2909C0 89.4592 2.29556 87.1636 5.12727 87.1636C7.95899 87.1636 10.2545 89.4592 10.2545 92.2909Z"/>
<path d="M10.2545 106.818C10.2545 109.65 7.95899 111.945 5.12727 111.945C2.29556 111.945 0 109.65 0 106.818C0 103.986 2.29556 101.691 5.12727 101.691C7.95899 101.691 10.2545 103.986 10.2545 106.818Z"/>
<path d="M10.2545 121.345C10.2545 124.177 7.95899 126.473 5.12727 126.473C2.29556 126.473 0 124.177 0 121.345C0 118.514 2.29556 116.218 5.12727 116.218C7.95899 116.218 10.2545 118.514 10.2545 121.345Z"/>
<path d="M10.2545 135.873C10.2545 138.704 7.95899 141 5.12727 141C2.29556 141 0 138.704 0 135.873C0 133.041 2.29556 130.745 5.12727 130.745C7.95899 130.745 10.2545 133.041 10.2545 135.873Z"/>
<path d="M24.7818 5.12727C24.7818 7.95899 22.4863 10.2545 19.6545 10.2545C16.8228 10.2545 14.5273 7.95899 14.5273 5.12727C14.5273 2.29556 16.8228 0 19.6545 0C22.4863 0 24.7818 2.29556 24.7818 5.12727Z"/>
<path d="M24.7818 19.6545C24.7818 22.4863 22.4863 24.7818 19.6545 24.7818C16.8228 24.7818 14.5273 22.4863 14.5273 19.6545C14.5273 16.8228 16.8228 14.5273 19.6545 14.5273C22.4863 14.5273 24.7818 16.8228 24.7818 19.6545Z"/>
<path d="M24.7818 34.1818C24.7818 37.0135 22.4863 39.3091 19.6545 39.3091C16.8228 39.3091 14.5273 37.0135 14.5273 34.1818C14.5273 31.3501 16.8228 29.0545 19.6545 29.0545C22.4863 29.0545 24.7818 31.3501 24.7818 34.1818Z"/>
<path d="M24.7818 48.7091C24.7818 51.5408 22.4863 53.8364 19.6545 53.8364C16.8228 53.8364 14.5273 51.5408 14.5273 48.7091C14.5273 45.8774 16.8228 43.5818 19.6545 43.5818C22.4863 43.5818 24.7818 45.8774 24.7818 48.7091Z"/>
<path d="M24.7818 63.2364C24.7818 66.0681 22.4863 68.3636 19.6545 68.3636C16.8228 68.3636 14.5273 66.0681 14.5273 63.2364C14.5273 60.4047 16.8228 58.1091 19.6545 58.1091C22.4863 58.1091 24.7818 60.4047 24.7818 63.2364Z"/>
<path d="M24.7818 77.7636C24.7818 80.5954 22.4863 82.8909 19.6545 82.8909C16.8228 82.8909 14.5273 80.5954 14.5273 77.7636C14.5273 74.9319 16.8228 72.6364 19.6545 72.6364C22.4863 72.6364 24.7818 74.9319 24.7818 77.7636Z"/>
<path d="M24.7818 92.2909C24.7818 95.1226 22.4863 97.4182 19.6545 97.4182C16.8228 97.4182 14.5273 95.1226 14.5273 92.2909C14.5273 89.4592 16.8228 87.1636 19.6545 87.1636C22.4863 87.1636 24.7818 89.4592 24.7818 92.2909Z"/>
<path d="M24.7818 106.818C24.7818 109.65 22.4863 111.945 19.6545 111.945C16.8228 111.945 14.5273 109.65 14.5273 106.818C14.5273 103.986 16.8228 101.691 19.6545 101.691C22.4863 101.691 24.7818 103.986 24.7818 106.818Z"/>
<path d="M24.7818 121.345C24.7818 124.177 22.4863 126.473 19.6545 126.473C16.8228 126.473 14.5273 124.177 14.5273 121.345C14.5273 118.514 16.8228 116.218 19.6545 116.218C22.4863 116.218 24.7818 118.514 24.7818 121.345Z"/>
<path d="M24.7818 135.873C24.7818 138.704 22.4863 141 19.6545 141C16.8228 141 14.5273 138.704 14.5273 135.873C14.5273 133.041 16.8228 130.745 19.6545 130.745C22.4863 130.745 24.7818 133.041 24.7818 135.873Z"/>
<path d="M39.3091 5.12727C39.3091 7.95899 37.0135 10.2545 34.1818 10.2545C31.3501 10.2545 29.0545 7.95899 29.0545 5.12727C29.0545 2.29556 31.3501 0 34.1818 0C37.0135 0 39.3091 2.29556 39.3091 5.12727Z"/>
<path d="M39.3091 19.6545C39.3091 22.4863 37.0135 24.7818 34.1818 24.7818C31.3501 24.7818 29.0545 22.4863 29.0545 19.6545C29.0545 16.8228 31.3501 14.5273 34.1818 14.5273C37.0135 14.5273 39.3091 16.8228 39.3091 19.6545Z"/>
<path d="M39.3091 34.1818C39.3091 37.0135 37.0135 39.3091 34.1818 39.3091C31.3501 39.3091 29.0545 37.0135 29.0545 34.1818C29.0545 31.3501 31.3501 29.0545 34.1818 29.0545C37.0135 29.0545 39.3091 31.3501 39.3091 34.1818Z"/>
<path d="M39.3091 48.7091C39.3091 51.5408 37.0135 53.8364 34.1818 53.8364C31.3501 53.8364 29.0545 51.5408 29.0545 48.7091C29.0545 45.8774 31.3501 43.5818 34.1818 43.5818C37.0135 43.5818 39.3091 45.8774 39.3091 48.7091Z"/>
<path d="M39.3091 63.2364C39.3091 66.0681 37.0135 68.3636 34.1818 68.3636C31.3501 68.3636 29.0545 66.0681 29.0545 63.2364C29.0545 60.4047 31.3501 58.1091 34.1818 58.1091C37.0135 58.1091 39.3091 60.4047 39.3091 63.2364Z"/>
<path d="M39.3091 77.7636C39.3091 80.5954 37.0135 82.8909 34.1818 82.8909C31.3501 82.8909 29.0545 80.5954 29.0545 77.7636C29.0545 74.9319 31.3501 72.6364 34.1818 72.6364C37.0135 72.6364 39.3091 74.9319 39.3091 77.7636Z"/>
<path d="M39.3091 92.2909C39.3091 95.1226 37.0135 97.4182 34.1818 97.4182C31.3501 97.4182 29.0545 95.1226 29.0545 92.2909C29.0545 89.4592 31.3501 87.1636 34.1818 87.1636C37.0135 87.1636 39.3091 89.4592 39.3091 92.2909Z"/>
<path d="M39.3091 106.818C39.3091 109.65 37.0135 111.945 34.1818 111.945C31.3501 111.945 29.0545 109.65 29.0545 106.818C29.0545 103.986 31.3501 101.691 34.1818 101.691C37.0135 101.691 39.3091 103.986 39.3091 106.818Z"/>
<path d="M39.3091 121.345C39.3091 124.177 37.0135 126.473 34.1818 126.473C31.3501 126.473 29.0545 124.177 29.0545 121.345C29.0545 118.514 31.3501 116.218 34.1818 116.218C37.0135 116.218 39.3091 118.514 39.3091 121.345Z"/>
<path d="M39.3091 135.873C39.3091 138.704 37.0135 141 34.1818 141C31.3501 141 29.0545 138.704 29.0545 135.873C29.0545 133.041 31.3501 130.745 34.1818 130.745C37.0135 130.745 39.3091 133.041 39.3091 135.873Z"/>
<path d="M53.8364 5.12727C53.8364 7.95899 51.5408 10.2545 48.7091 10.2545C45.8774 10.2545 43.5818 7.95899 43.5818 5.12727C43.5818 2.29556 45.8774 0 48.7091 0C51.5408 0 53.8364 2.29556 53.8364 5.12727Z"/>
<path d="M53.8364 19.6545C53.8364 22.4863 51.5408 24.7818 48.7091 24.7818C45.8774 24.7818 43.5818 22.4863 43.5818 19.6545C43.5818 16.8228 45.8774 14.5273 48.7091 14.5273C51.5408 14.5273 53.8364 16.8228 53.8364 19.6545Z"/>
<path d="M53.8364 34.1818C53.8364 37.0135 51.5408 39.3091 48.7091 39.3091C45.8774 39.3091 43.5818 37.0135 43.5818 34.1818C43.5818 31.3501 45.8774 29.0545 48.7091 29.0545C51.5408 29.0545 53.8364 31.3501 53.8364 34.1818Z"/>
<path d="M53.8364 48.7091C53.8364 51.5408 51.5408 53.8364 48.7091 53.8364C45.8774 53.8364 43.5818 51.5408 43.5818 48.7091C43.5818 45.8774 45.8774 43.5818 48.7091 43.5818C51.5408 43.5818 53.8364 45.8774 53.8364 48.7091Z"/>
<path d="M53.8364 63.2364C53.8364 66.0681 51.5408 68.3636 48.7091 68.3636C45.8774 68.3636 43.5818 66.0681 43.5818 63.2364C43.5818 60.4047 45.8774 58.1091 48.7091 58.1091C51.5408 58.1091 53.8364 60.4047 53.8364 63.2364Z"/>
<path d="M53.8364 77.7636C53.8364 80.5954 51.5408 82.8909 48.7091 82.8909C45.8774 82.8909 43.5818 80.5954 43.5818 77.7636C43.5818 74.9319 45.8774 72.6364 48.7091 72.6364C51.5408 72.6364 53.8364 74.9319 53.8364 77.7636Z"/>
<path d="M53.8364 92.2909C53.8364 95.1226 51.5408 97.4182 48.7091 97.4182C45.8774 97.4182 43.5818 95.1226 43.5818 92.2909C43.5818 89.4592 45.8774 87.1636 48.7091 87.1636C51.5408 87.1636 53.8364 89.4592 53.8364 92.2909Z"/>
<path d="M53.8364 106.818C53.8364 109.65 51.5408 111.945 48.7091 111.945C45.8774 111.945 43.5818 109.65 43.5818 106.818C43.5818 103.986 45.8774 101.691 48.7091 101.691C51.5408 101.691 53.8364 103.986 53.8364 106.818Z"/>
<path d="M53.8364 121.345C53.8364 124.177 51.5408 126.473 48.7091 126.473C45.8774 126.473 43.5818 124.177 43.5818 121.345C43.5818 118.514 45.8774 116.218 48.7091 116.218C51.5408 116.218 53.8364 118.514 53.8364 121.345Z"/>
<path d="M53.8364 135.873C53.8364 138.704 51.5408 141 48.7091 141C45.8774 141 43.5818 138.704 43.5818 135.873C43.5818 133.041 45.8774 130.745 48.7091 130.745C51.5408 130.745 53.8364 133.041 53.8364 135.873Z"/>
<path d="M68.3636 5.12727C68.3636 7.95899 66.0681 10.2545 63.2364 10.2545C60.4047 10.2545 58.1091 7.95899 58.1091 5.12727C58.1091 2.29556 60.4047 0 63.2364 0C66.0681 0 68.3636 2.29556 68.3636 5.12727Z"/>
<path d="M68.3636 19.6545C68.3636 22.4863 66.0681 24.7818 63.2364 24.7818C60.4047 24.7818 58.1091 22.4863 58.1091 19.6545C58.1091 16.8228 60.4047 14.5273 63.2364 14.5273C66.0681 14.5273 68.3636 16.8228 68.3636 19.6545Z"/>
<path d="M68.3636 34.1818C68.3636 37.0135 66.0681 39.3091 63.2364 39.3091C60.4047 39.3091 58.1091 37.0135 58.1091 34.1818C58.1091 31.3501 60.4047 29.0545 63.2364 29.0545C66.0681 29.0545 68.3636 31.3501 68.3636 34.1818Z"/>
<path d="M68.3636 48.7091C68.3636 51.5408 66.0681 53.8364 63.2364 53.8364C60.4047 53.8364 58.1091 51.5408 58.1091 48.7091C58.1091 45.8774 60.4047 43.5818 63.2364 43.5818C66.0681 43.5818 68.3636 45.8774 68.3636 48.7091Z"/>
<path d="M68.3636 63.2364C68.3636 66.0681 66.0681 68.3636 63.2364 68.3636C60.4047 68.3636 58.1091 66.0681 58.1091 63.2364C58.1091 60.4047 60.4047 58.1091 63.2364 58.1091C66.0681 58.1091 68.3636 60.4047 68.3636 63.2364Z"/>
<path d="M68.3636 77.7636C68.3636 80.5954 66.0681 82.8909 63.2364 82.8909C60.4047 82.8909 58.1091 80.5954 58.1091 77.7636C58.1091 74.9319 60.4047 72.6364 63.2364 72.6364C66.0681 72.6364 68.3636 74.9319 68.3636 77.7636Z"/>
<path d="M68.3636 92.2909C68.3636 95.1226 66.0681 97.4182 63.2364 97.4182C60.4047 97.4182 58.1091 95.1226 58.1091 92.2909C58.1091 89.4592 60.4047 87.1636 63.2364 87.1636C66.0681 87.1636 68.3636 89.4592 68.3636 92.2909Z"/>
<path d="M68.3636 106.818C68.3636 109.65 66.0681 111.945 63.2364 111.945C60.4047 111.945 58.1091 109.65 58.1091 106.818C58.1091 103.986 60.4047 101.691 63.2364 101.691C66.0681 101.691 68.3636 103.986 68.3636 106.818Z"/>
<path d="M68.3636 121.345C68.3636 124.177 66.0681 126.473 63.2364 126.473C60.4047 126.473 58.1091 124.177 58.1091 121.345C58.1091 118.514 60.4047 116.218 63.2364 116.218C66.0681 116.218 68.3636 118.514 68.3636 121.345Z"/>
<path d="M68.3636 135.873C68.3636 138.704 66.0681 141 63.2364 141C60.4047 141 58.1091 138.704 58.1091 135.873C58.1091 133.041 60.4047 130.745 63.2364 130.745C66.0681 130.745 68.3636 133.041 68.3636 135.873Z"/>
<path d="M82.8909 5.12727C82.8909 7.95899 80.5954 10.2545 77.7636 10.2545C74.9319 10.2545 72.6364 7.95899 72.6364 5.12727C72.6364 2.29556 74.9319 0 77.7636 0C80.5954 0 82.8909 2.29556 82.8909 5.12727Z"/>
<path d="M82.8909 19.6545C82.8909 22.4863 80.5954 24.7818 77.7636 24.7818C74.9319 24.7818 72.6364 22.4863 72.6364 19.6545C72.6364 16.8228 74.9319 14.5273 77.7636 14.5273C80.5954 14.5273 82.8909 16.8228 82.8909 19.6545Z"/>
<path d="M82.8909 34.1818C82.8909 37.0135 80.5954 39.3091 77.7636 39.3091C74.9319 39.3091 72.6364 37.0135 72.6364 34.1818C72.6364 31.3501 74.9319 29.0545 77.7636 29.0545C80.5954 29.0545 82.8909 31.3501 82.8909 34.1818Z"/>
<path d="M82.8909 48.7091C82.8909 51.5408 80.5954 53.8364 77.7636 53.8364C74.9319 53.8364 72.6364 51.5408 72.6364 48.7091C72.6364 45.8774 74.9319 43.5818 77.7636 43.5818C80.5954 43.5818 82.8909 45.8774 82.8909 48.7091Z"/>
<path d="M82.8909 63.2364C82.8909 66.0681 80.5954 68.3636 77.7636 68.3636C74.9319 68.3636 72.6364 66.0681 72.6364 63.2364C72.6364 60.4047 74.9319 58.1091 77.7636 58.1091C80.5954 58.1091 82.8909 60.4047 82.8909 63.2364Z"/>
<path d="M82.8909 77.7636C82.8909 80.5954 80.5954 82.8909 77.7636 82.8909C74.9319 82.8909 72.6364 80.5954 72.6364 77.7636C72.6364 74.9319 74.9319 72.6364 77.7636 72.6364C80.5954 72.6364 82.8909 74.9319 82.8909 77.7636Z"/>
<path d="M82.8909 92.2909C82.8909 95.1226 80.5954 97.4182 77.7636 97.4182C74.9319 97.4182 72.6364 95.1226 72.6364 92.2909C72.6364 89.4592 74.9319 87.1636 77.7636 87.1636C80.5954 87.1636 82.8909 89.4592 82.8909 92.2909Z"/>
<path d="M82.8909 106.818C82.8909 109.65 80.5954 111.945 77.7636 111.945C74.9319 111.945 72.6364 109.65 72.6364 106.818C72.6364 103.986 74.9319 101.691 77.7636 101.691C80.5954 101.691 82.8909 103.986 82.8909 106.818Z"/>
<path d="M82.8909 121.345C82.8909 124.177 80.5954 126.473 77.7636 126.473C74.9319 126.473 72.6364 124.177 72.6364 121.345C72.6364 118.514 74.9319 116.218 77.7636 116.218C80.5954 116.218 82.8909 118.514 82.8909 121.345Z"/>
<path d="M82.8909 135.873C82.8909 138.704 80.5954 141 77.7636 141C74.9319 141 72.6364 138.704 72.6364 135.873C72.6364 133.041 74.9319 130.745 77.7636 130.745C80.5954 130.745 82.8909 133.041 82.8909 135.873Z"/>
<path d="M97.4182 5.12727C97.4182 7.95899 95.1226 10.2545 92.2909 10.2545C89.4592 10.2545 87.1636 7.95899 87.1636 5.12727C87.1636 2.29556 89.4592 0 92.2909 0C95.1226 0 97.4182 2.29556 97.4182 5.12727Z"/>
<path d="M97.4182 19.6545C97.4182 22.4863 95.1226 24.7818 92.2909 24.7818C89.4592 24.7818 87.1636 22.4863 87.1636 19.6545C87.1636 16.8228 89.4592 14.5273 92.2909 14.5273C95.1226 14.5273 97.4182 16.8228 97.4182 19.6545Z"/>
<path d="M97.4182 34.1818C97.4182 37.0135 95.1226 39.3091 92.2909 39.3091C89.4592 39.3091 87.1636 37.0135 87.1636 34.1818C87.1636 31.3501 89.4592 29.0545 92.2909 29.0545C95.1226 29.0545 97.4182 31.3501 97.4182 34.1818Z"/>
<path d="M97.4182 48.7091C97.4182 51.5408 95.1226 53.8364 92.2909 53.8364C89.4592 53.8364 87.1636 51.5408 87.1636 48.7091C87.1636 45.8774 89.4592 43.5818 92.2909 43.5818C95.1226 43.5818 97.4182 45.8774 97.4182 48.7091Z"/>
<path d="M97.4182 63.2364C97.4182 66.0681 95.1226 68.3636 92.2909 68.3636C89.4592 68.3636 87.1636 66.0681 87.1636 63.2364C87.1636 60.4047 89.4592 58.1091 92.2909 58.1091C95.1226 58.1091 97.4182 60.4047 97.4182 63.2364Z"/>
<path d="M97.4182 77.7636C97.4182 80.5954 95.1226 82.8909 92.2909 82.8909C89.4592 82.8909 87.1636 80.5954 87.1636 77.7636C87.1636 74.9319 89.4592 72.6364 92.2909 72.6364C95.1226 72.6364 97.4182 74.9319 97.4182 77.7636Z"/>
<path d="M97.4182 92.2909C97.4182 95.1226 95.1226 97.4182 92.2909 97.4182C89.4592 97.4182 87.1636 95.1226 87.1636 92.2909C87.1636 89.4592 89.4592 87.1636 92.2909 87.1636C95.1226 87.1636 97.4182 89.4592 97.4182 92.2909Z"/>
<path d="M97.4182 106.818C97.4182 109.65 95.1226 111.945 92.2909 111.945C89.4592 111.945 87.1636 109.65 87.1636 106.818C87.1636 103.986 89.4592 101.691 92.2909 101.691C95.1226 101.691 97.4182 103.986 97.4182 106.818Z"/>
<path d="M97.4182 121.345C97.4182 124.177 95.1226 126.473 92.2909 126.473C89.4592 126.473 87.1636 124.177 87.1636 121.345C87.1636 118.514 89.4592 116.218 92.2909 116.218C95.1226 116.218 97.4182 118.514 97.4182 121.345Z"/>
<path d="M97.4182 135.873C97.4182 138.704 95.1226 141 92.2909 141C89.4592 141 87.1636 138.704 87.1636 135.873C87.1636 133.041 89.4592 130.745 92.2909 130.745C95.1226 130.745 97.4182 133.041 97.4182 135.873Z"/>
<path d="M111.945 5.12727C111.945 7.95899 109.65 10.2545 106.818 10.2545C103.986 10.2545 101.691 7.95899 101.691 5.12727C101.691 2.29556 103.986 0 106.818 0C109.65 0 111.945 2.29556 111.945 5.12727Z"/>
<path d="M111.945 19.6545C111.945 22.4863 109.65 24.7818 106.818 24.7818C103.986 24.7818 101.691 22.4863 101.691 19.6545C101.691 16.8228 103.986 14.5273 106.818 14.5273C109.65 14.5273 111.945 16.8228 111.945 19.6545Z"/>
<path d="M111.945 34.1818C111.945 37.0135 109.65 39.3091 106.818 39.3091C103.986 39.3091 101.691 37.0135 101.691 34.1818C101.691 31.3501 103.986 29.0545 106.818 29.0545C109.65 29.0545 111.945 31.3501 111.945 34.1818Z"/>
<path d="M111.945 48.7091C111.945 51.5408 109.65 53.8364 106.818 53.8364C103.986 53.8364 101.691 51.5408 101.691 48.7091C101.691 45.8774 103.986 43.5818 106.818 43.5818C109.65 43.5818 111.945 45.8774 111.945 48.7091Z"/>
<path d="M111.945 63.2364C111.945 66.0681 109.65 68.3636 106.818 68.3636C103.986 68.3636 101.691 66.0681 101.691 63.2364C101.691 60.4047 103.986 58.1091 106.818 58.1091C109.65 58.1091 111.945 60.4047 111.945 63.2364Z"/>
<path d="M111.945 77.7636C111.945 80.5954 109.65 82.8909 106.818 82.8909C103.986 82.8909 101.691 80.5954 101.691 77.7636C101.691 74.9319 103.986 72.6364 106.818 72.6364C109.65 72.6364 111.945 74.9319 111.945 77.7636Z"/>
<path d="M111.945 92.2909C111.945 95.1226 109.65 97.4182 106.818 97.4182C103.986 97.4182 101.691 95.1226 101.691 92.2909C101.691 89.4592 103.986 87.1636 106.818 87.1636C109.65 87.1636 111.945 89.4592 111.945 92.2909Z"/>
<path d="M111.945 106.818C111.945 109.65 109.65 111.945 106.818 111.945C103.986 111.945 101.691 109.65 101.691 106.818C101.691 103.986 103.986 101.691 106.818 101.691C109.65 101.691 111.945 103.986 111.945 106.818Z"/>
<path d="M111.945 121.345C111.945 124.177 109.65 126.473 106.818 126.473C103.986 126.473 101.691 124.177 101.691 121.345C101.691 118.514 103.986 116.218 106.818 116.218C109.65 116.218 111.945 118.514 111.945 121.345Z"/>
<path d="M111.945 135.873C111.945 138.704 109.65 141 106.818 141C103.986 141 101.691 138.704 101.691 135.873C101.691 133.041 103.986 130.745 106.818 130.745C109.65 130.745 111.945 133.041 111.945 135.873Z"/>
<path d="M126.473 5.12727C126.473 7.95899 124.177 10.2545 121.345 10.2545C118.514 10.2545 116.218 7.95899 116.218 5.12727C116.218 2.29556 118.514 0 121.345 0C124.177 0 126.473 2.29556 126.473 5.12727Z"/>
<path d="M126.473 19.6545C126.473 22.4863 124.177 24.7818 121.345 24.7818C118.514 24.7818 116.218 22.4863 116.218 19.6545C116.218 16.8228 118.514 14.5273 121.345 14.5273C124.177 14.5273 126.473 16.8228 126.473 19.6545Z"/>
<path d="M126.473 34.1818C126.473 37.0135 124.177 39.3091 121.345 39.3091C118.514 39.3091 116.218 37.0135 116.218 34.1818C116.218 31.3501 118.514 29.0545 121.345 29.0545C124.177 29.0545 126.473 31.3501 126.473 34.1818Z"/>
<path d="M126.473 48.7091C126.473 51.5408 124.177 53.8364 121.345 53.8364C118.514 53.8364 116.218 51.5408 116.218 48.7091C116.218 45.8774 118.514 43.5818 121.345 43.5818C124.177 43.5818 126.473 45.8774 126.473 48.7091Z"/>
<path d="M126.473 63.2364C126.473 66.0681 124.177 68.3636 121.345 68.3636C118.514 68.3636 116.218 66.0681 116.218 63.2364C116.218 60.4047 118.514 58.1091 121.345 58.1091C124.177 58.1091 126.473 60.4047 126.473 63.2364Z"/>
<path d="M126.473 77.7636C126.473 80.5954 124.177 82.8909 121.345 82.8909C118.514 82.8909 116.218 80.5954 116.218 77.7636C116.218 74.9319 118.514 72.6364 121.345 72.6364C124.177 72.6364 126.473 74.9319 126.473 77.7636Z"/>
<path d="M126.473 92.2909C126.473 95.1226 124.177 97.4182 121.345 97.4182C118.514 97.4182 116.218 95.1226 116.218 92.2909C116.218 89.4592 118.514 87.1636 121.345 87.1636C124.177 87.1636 126.473 89.4592 126.473 92.2909Z"/>
<path d="M126.473 106.818C126.473 109.65 124.177 111.945 121.345 111.945C118.514 111.945 116.218 109.65 116.218 106.818C116.218 103.986 118.514 101.691 121.345 101.691C124.177 101.691 126.473 103.986 126.473 106.818Z"/>
<path d="M126.473 121.345C126.473 124.177 124.177 126.473 121.345 126.473C118.514 126.473 116.218 124.177 116.218 121.345C116.218 118.514 118.514 116.218 121.345 116.218C124.177 116.218 126.473 118.514 126.473 121.345Z"/>
<path d="M126.473 135.873C126.473 138.704 124.177 141 121.345 141C118.514 141 116.218 138.704 116.218 135.873C116.218 133.041 118.514 130.745 121.345 130.745C124.177 130.745 126.473 133.041 126.473 135.873Z"/>
<path d="M141 5.12727C141 7.95899 138.704 10.2545 135.873 10.2545C133.041 10.2545 130.745 7.95899 130.745 5.12727C130.745 2.29556 133.041 0 135.873 0C138.704 0 141 2.29556 141 5.12727Z"/>
<path d="M141 19.6545C141 22.4863 138.704 24.7818 135.873 24.7818C133.041 24.7818 130.745 22.4863 130.745 19.6545C130.745 16.8228 133.041 14.5273 135.873 14.5273C138.704 14.5273 141 16.8228 141 19.6545Z"/>
<path d="M141 34.1818C141 37.0135 138.704 39.3091 135.873 39.3091C133.041 39.3091 130.745 37.0135 130.745 34.1818C130.745 31.3501 133.041 29.0545 135.873 29.0545C138.704 29.0545 141 31.3501 141 34.1818Z"/>
<path d="M141 48.7091C141 51.5408 138.704 53.8364 135.873 53.8364C133.041 53.8364 130.745 51.5408 130.745 48.7091C130.745 45.8774 133.041 43.5818 135.873 43.5818C138.704 43.5818 141 45.8774 141 48.7091Z"/>
<path d="M141 63.2364C141 66.0681 138.704 68.3636 135.873 68.3636C133.041 68.3636 130.745 66.0681 130.745 63.2364C130.745 60.4047 133.041 58.1091 135.873 58.1091C138.704 58.1091 141 60.4047 141 63.2364Z"/>
<path d="M141 77.7636C141 80.5954 138.704 82.8909 135.873 82.8909C133.041 82.8909 130.745 80.5954 130.745 77.7636C130.745 74.9319 133.041 72.6364 135.873 72.6364C138.704 72.6364 141 74.9319 141 77.7636Z"/>
<path d="M141 92.2909C141 95.1226 138.704 97.4182 135.873 97.4182C133.041 97.4182 130.745 95.1226 130.745 92.2909C130.745 89.4592 133.041 87.1636 135.873 87.1636C138.704 87.1636 141 89.4592 141 92.2909Z"/>
<path d="M141 106.818C141 109.65 138.704 111.945 135.873 111.945C133.041 111.945 130.745 109.65 130.745 106.818C130.745 103.986 133.041 101.691 135.873 101.691C138.704 101.691 141 103.986 141 106.818Z"/>
<path d="M141 121.345C141 124.177 138.704 126.473 135.873 126.473C133.041 126.473 130.745 124.177 130.745 121.345C130.745 118.514 133.041 116.218 135.873 116.218C138.704 116.218 141 118.514 141 121.345Z"/>
<path d="M141 135.873C141 138.704 138.704 141 135.873 141C133.041 141 130.745 138.704 130.745 135.873C130.745 133.041 133.041 130.745 135.873 130.745C138.704 130.745 141 133.041 141 135.873Z"/>
</mask>
<path d="M10.2545 5.12727C10.2545 7.95899 7.95899 10.2545 5.12727 10.2545C2.29556 10.2545 0 7.95899 0 5.12727C0 2.29556 2.29556 0 5.12727 0C7.95899 0 10.2545 2.29556 10.2545 5.12727Z" stroke="#E7F0FF" stroke-width="4" mask="url(#path-1-inside-1_1_3)"/>
<path d="M10.2545 19.6545C10.2545 22.4863 7.95899 24.7818 5.12727 24.7818C2.29556 24.7818 0 22.4863 0 19.6545C0 16.8228 2.29556 14.5273 5.12727 14.5273C7.95899 14.5273 10.2545 16.8228 10.2545 19.6545Z" stroke="#E7F0FF" stroke-width="4" mask="url(#path-1-inside-1_1_3)"/>
<path d="M10.2545 34.1818C10.2545 37.0135 7.95899 39.3091 5.12727 39.3091C2.29556 39.3091 0 37.0135 0 34.1818C0 31.3501 2.29556 29.0545 5.12727 29.0545C7.95899 29.0545 10.2545 31.3501 10.2545 34.1818Z" stroke="#E7F0FF" stroke-width="4" mask="url(#path-1-inside-1_1_3)"/>
<path d="M10.2545 48.7091C10.2545 51.5408 7.95899 53.8364 5.12727 53.8364C2.29556 53.8364 0 51.5408 0 48.7091C0 45.8774 2.29556 43.5818 5.12727 43.5818C7.95899 43.5818 10.2545 45.8774 10.2545 48.7091Z" stroke="#E7F0FF" stroke-width="4" mask="url(#path-1-inside-1_1_3)"/>
<path d="M10.2545 63.2364C10.2545 66.0681 7.95899 68.3636 5.12727 68.3636C2.29556 68.3636 0 66.0681 0 63.2364C0 60.4047 2.29556 58.1091 5.12727 58.1091C7.95899 58.1091 10.2545 60.4047 10.2545 63.2364Z" stroke="#E7F0FF" stroke-width="4" mask="url(#path-1-inside-1_1_3)"/>
<path d="M10.2545 77.7636C10.2545 80.5954 7.95899 82.8909 5.12727 82.8909C2.29556 82.8909 0 80.5954 0 77.7636C0 74.9319 2.29556 72.6364 5.12727 72.6364C7.95899 72.6364 10.2545 74.9319 10.2545 77.7636Z" stroke="#E7F0FF" stroke-width="4" mask="url(#path-1-inside-1_1_3)"/>
<path d="M10.2545 92.2909C10.2545 95.1226 7.95899 97.4182 5.12727 97.4182C2.29556 97.4182 0 95.1226 0 92.2909C0 89.4592 2.29556 87.1636 5.12727 87.1636C7.95899 87.1636 10.2545 89.4592 10.2545 92.2909Z" stroke="#E7F0FF" stroke-width="4" mask="url(#path-1-inside-1_1_3)"/>
<path d="M10.2545 106.818C10.2545 109.65 7.95899 111.945 5.12727 111.945C2.29556 111.945 0 109.65 0 106.818C0 103.986 2.29556 101.691 5.12727 101.691C7.95899 101.691 10.2545 103.986 10.2545 106.818Z" stroke="#E7F0FF" stroke-width="4" mask="url(#path-1-inside-1_1_3)"/>
<path d="M10.2545 121.345C10.2545 124.177 7.95899 126.473 5.12727 126.473C2.29556 126.473 0 124.177 0 121.345C0 118.514 2.29556 116.218 5.12727 116.218C7.95899 116.218 10.2545 118.514 10.2545 121.345Z" stroke="#E7F0FF" stroke-width="4" mask="url(#path-1-inside-1_1_3)"/>
<path d="M10.2545 135.873C10.2545 138.704 7.95899 141 5.12727 141C2.29556 141 0 138.704 0 135.873C0 133.041 2.29556 130.745 5.12727 130.745C7.95899 130.745 10.2545 133.041 10.2545 135.873Z" stroke="#E7F0FF" stroke-width="4" mask="url(#path-1-inside-1_1_3)"/>
<path d="M24.7818 5.12727C24.7818 7.95899 22.4863 10.2545 19.6545 10.2545C16.8228 10.2545 14.5273 7.95899 14.5273 5.12727C14.5273 2.29556 16.8228 0 19.6545 0C22.4863 0 24.7818 2.29556 24.7818 5.12727Z" stroke="#E7F0FF" stroke-width="4" mask="url(#path-1-inside-1_1_3)"/>
<path d="M24.7818 19.6545C24.7818 22.4863 22.4863 24.7818 19.6545 24.7818C16.8228 24.7818 14.5273 22.4863 14.5273 19.6545C14.5273 16.8228 16.8228 14.5273 19.6545 14.5273C22.4863 14.5273 24.7818 16.8228 24.7818 19.6545Z" stroke="#E7F0FF" stroke-width="4" mask="url(#path-1-inside-1_1_3)"/>
<path d="M24.7818 34.1818C24.7818 37.0135 22.4863 39.3091 19.6545 39.3091C16.8228 39.3091 14.5273 37.0135 14.5273 34.1818C14.5273 31.3501 16.8228 29.0545 19.6545 29.0545C22.4863 29.0545 24.7818 31.3501 24.7818 34.1818Z" stroke="#E7F0FF" stroke-width="4" mask="url(#path-1-inside-1_1_3)"/>
<path d="M24.7818 48.7091C24.7818 51.5408 22.4863 53.8364 19.6545 53.8364C16.8228 53.8364 14.5273 51.5408 14.5273 48.7091C14.5273 45.8774 16.8228 43.5818 19.6545 43.5818C22.4863 43.5818 24.7818 45.8774 24.7818 48.7091Z" stroke="#E7F0FF" stroke-width="4" mask="url(#path-1-inside-1_1_3)"/>
<path d="M24.7818 63.2364C24.7818 66.0681 22.4863 68.3636 19.6545 68.3636C16.8228 68.3636 14.5273 66.0681 14.5273 63.2364C14.5273 60.4047 16.8228 58.1091 19.6545 58.1091C22.4863 58.1091 24.7818 60.4047 24.7818 63.2364Z" stroke="#E7F0FF" stroke-width="4" mask="url(#path-1-inside-1_1_3)"/>
<path d="M24.7818 77.7636C24.7818 80.5954 22.4863 82.8909 19.6545 82.8909C16.8228 82.8909 14.5273 80.5954 14.5273 77.7636C14.5273 74.9319 16.8228 72.6364 19.6545 72.6364C22.4863 72.6364 24.7818 74.9319 24.7818 77.7636Z" stroke="#E7F0FF" stroke-width="4" mask="url(#path-1-inside-1_1_3)"/>
<path d="M24.7818 92.2909C24.7818 95.1226 22.4863 97.4182 19.6545 97.4182C16.8228 97.4182 14.5273 95.1226 14.5273 92.2909C14.5273 89.4592 16.8228 87.1636 19.6545 87.1636C22.4863 87.1636 24.7818 89.4592 24.7818 92.2909Z" stroke="#E7F0FF" stroke-width="4" mask="url(#path-1-inside-1_1_3)"/>
<path d="M24.7818 106.818C24.7818 109.65 22.4863 111.945 19.6545 111.945C16.8228 111.945 14.5273 109.65 14.5273 106.818C14.5273 103.986 16.8228 101.691 19.6545 101.691C22.4863 101.691 24.7818 103.986 24.7818 106.818Z" stroke="#E7F0FF" stroke-width="4" mask="url(#path-1-inside-1_1_3)"/>
<path d="M24.7818 121.345C24.7818 124.177 22.4863 126.473 19.6545 126.473C16.8228 126.473 14.5273 124.177 14.5273 121.345C14.5273 118.514 16.8228 116.218 19.6545 116.218C22.4863 116.218 24.7818 118.514 24.7818 121.345Z" stroke="#E7F0FF" stroke-width="4" mask="url(#path-1-inside-1_1_3)"/>
<path d="M24.7818 135.873C24.7818 138.704 22.4863 141 19.6545 141C16.8228 141 14.5273 138.704 14.5273 135.873C14.5273 133.041 16.8228 130.745 19.6545 130.745C22.4863 130.745 24.7818 133.041 24.7818 135.873Z" stroke="#E7F0FF" stroke-width="4" mask="url(#path-1-inside-1_1_3)"/>
<path d="M39.3091 5.12727C39.3091 7.95899 37.0135 10.2545 34.1818 10.2545C31.3501 10.2545 29.0545 7.95899 29.0545 5.12727C29.0545 2.29556 31.3501 0 34.1818 0C37.0135 0 39.3091 2.29556 39.3091 5.12727Z" stroke="#E7F0FF" stroke-width="4" mask="url(#path-1-inside-1_1_3)"/>
<path d="M39.3091 19.6545C39.3091 22.4863 37.0135 24.7818 34.1818 24.7818C31.3501 24.7818 29.0545 22.4863 29.0545 19.6545C29.0545 16.8228 31.3501 14.5273 34.1818 14.5273C37.0135 14.5273 39.3091 16.8228 39.3091 19.6545Z" stroke="#E7F0FF" stroke-width="4" mask="url(#path-1-inside-1_1_3)"/>
<path d="M39.3091 34.1818C39.3091 37.0135 37.0135 39.3091 34.1818 39.3091C31.3501 39.3091 29.0545 37.0135 29.0545 34.1818C29.0545 31.3501 31.3501 29.0545 34.1818 29.0545C37.0135 29.0545 39.3091 31.3501 39.3091 34.1818Z" stroke="#E7F0FF" stroke-width="4" mask="url(#path-1-inside-1_1_3)"/>
<path d="M39.3091 48.7091C39.3091 51.5408 37.0135 53.8364 34.1818 53.8364C31.3501 53.8364 29.0545 51.5408 29.0545 48.7091C29.0545 45.8774 31.3501 43.5818 34.1818 43.5818C37.0135 43.5818 39.3091 45.8774 39.3091 48.7091Z" stroke="#E7F0FF" stroke-width="4" mask="url(#path-1-inside-1_1_3)"/>
<path d="M39.3091 63.2364C39.3091 66.0681 37.0135 68.3636 34.1818 68.3636C31.3501 68.3636 29.0545 66.0681 29.0545 63.2364C29.0545 60.4047 31.3501 58.1091 34.1818 58.1091C37.0135 58.1091 39.3091 60.4047 39.3091 63.2364Z" stroke="#E7F0FF" stroke-width="4" mask="url(#path-1-inside-1_1_3)"/>
<path d="M39.3091 77.7636C39.3091 80.5954 37.0135 82.8909 34.1818 82.8909C31.3501 82.8909 29.0545 80.5954 29.0545 77.7636C29.0545 74.9319 31.3501 72.6364 34.1818 72.6364C37.0135 72.6364 39.3091 74.9319 39.3091 77.7636Z" stroke="#E7F0FF" stroke-width="4" mask="url(#path-1-inside-1_1_3)"/>
<path d="M39.3091 92.2909C39.3091 95.1226 37.0135 97.4182 34.1818 97.4182C31.3501 97.4182 29.0545 95.1226 29.0545 92.2909C29.0545 89.4592 31.3501 87.1636 34.1818 87.1636C37.0135 87.1636 39.3091 89.4592 39.3091 92.2909Z" stroke="#E7F0FF" stroke-width="4" mask="url(#path-1-inside-1_1_3)"/>
<path d="M39.3091 106.818C39.3091 109.65 37.0135 111.945 34.1818 111.945C31.3501 111.945 29.0545 109.65 29.0545 106.818C29.0545 103.986 31.3501 101.691 34.1818 101.691C37.0135 101.691 39.3091 103.986 39.3091 106.818Z" stroke="#E7F0FF" stroke-width="4" mask="url(#path-1-inside-1_1_3)"/>
<path d="M39.3091 121.345C39.3091 124.177 37.0135 126.473 34.1818 126.473C31.3501 126.473 29.0545 124.177 29.0545 121.345C29.0545 118.514 31.3501 116.218 34.1818 116.218C37.0135 116.218 39.3091 118.514 39.3091 121.345Z" stroke="#E7F0FF" stroke-width="4" mask="url(#path-1-inside-1_1_3)"/>
<path d="M39.3091 135.873C39.3091 138.704 37.0135 141 34.1818 141C31.3501 141 29.0545 138.704 29.0545 135.873C29.0545 133.041 31.3501 130.745 34.1818 130.745C37.0135 130.745 39.3091 133.041 39.3091 135.873Z" stroke="#E7F0FF" stroke-width="4" mask="url(#path-1-inside-1_1_3)"/>
<path d="M53.8364 5.12727C53.8364 7.95899 51.5408 10.2545 48.7091 10.2545C45.8774 10.2545 43.5818 7.95899 43.5818 5.12727C43.5818 2.29556 45.8774 0 48.7091 0C51.5408 0 53.8364 2.29556 53.8364 5.12727Z" stroke="#E7F0FF" stroke-width="4" mask="url(#path-1-inside-1_1_3)"/>
<path d="M53.8364 19.6545C53.8364 22.4863 51.5408 24.7818 48.7091 24.7818C45.8774 24.7818 43.5818 22.4863 43.5818 19.6545C43.5818 16.8228 45.8774 14.5273 48.7091 14.5273C51.5408 14.5273 53.8364 16.8228 53.8364 19.6545Z" stroke="#E7F0FF" stroke-width="4" mask="url(#path-1-inside-1_1_3)"/>
<path d="M53.8364 34.1818C53.8364 37.0135 51.5408 39.3091 48.7091 39.3091C45.8774 39.3091 43.5818 37.0135 43.5818 34.1818C43.5818 31.3501 45.8774 29.0545 48.7091 29.0545C51.5408 29.0545 53.8364 31.3501 53.8364 34.1818Z" stroke="#E7F0FF" stroke-width="4" mask="url(#path-1-inside-1_1_3)"/>
<path d="M53.8364 48.7091C53.8364 51.5408 51.5408 53.8364 48.7091 53.8364C45.8774 53.8364 43.5818 51.5408 43.5818 48.7091C43.5818 45.8774 45.8774 43.5818 48.7091 43.5818C51.5408 43.5818 53.8364 45.8774 53.8364 48.7091Z" stroke="#E7F0FF" stroke-width="4" mask="url(#path-1-inside-1_1_3)"/>
<path d="M53.8364 63.2364C53.8364 66.0681 51.5408 68.3636 48.7091 68.3636C45.8774 68.3636 43.5818 66.0681 43.5818 63.2364C43.5818 60.4047 45.8774 58.1091 48.7091 58.1091C51.5408 58.1091 53.8364 60.4047 53.8364 63.2364Z" stroke="#E7F0FF" stroke-width="4" mask="url(#path-1-inside-1_1_3)"/>
<path d="M53.8364 77.7636C53.8364 80.5954 51.5408 82.8909 48.7091 82.8909C45.8774 82.8909 43.5818 80.5954 43.5818 77.7636C43.5818 74.9319 45.8774 72.6364 48.7091 72.6364C51.5408 72.6364 53.8364 74.9319 53.8364 77.7636Z" stroke="#E7F0FF" stroke-width="4" mask="url(#path-1-inside-1_1_3)"/>
<path d="M53.8364 92.2909C53.8364 95.1226 51.5408 97.4182 48.7091 97.4182C45.8774 97.4182 43.5818 95.1226 43.5818 92.2909C43.5818 89.4592 45.8774 87.1636 48.7091 87.1636C51.5408 87.1636 53.8364 89.4592 53.8364 92.2909Z" stroke="#E7F0FF" stroke-width="4" mask="url(#path-1-inside-1_1_3)"/>
<path d="M53.8364 106.818C53.8364 109.65 51.5408 111.945 48.7091 111.945C45.8774 111.945 43.5818 109.65 43.5818 106.818C43.5818 103.986 45.8774 101.691 48.7091 101.691C51.5408 101.691 53.8364 103.986 53.8364 106.818Z" stroke="#E7F0FF" stroke-width="4" mask="url(#path-1-inside-1_1_3)"/>
<path d="M53.8364 121.345C53.8364 124.177 51.5408 126.473 48.7091 126.473C45.8774 126.473 43.5818 124.177 43.5818 121.345C43.5818 118.514 45.8774 116.218 48.7091 116.218C51.5408 116.218 53.8364 118.514 53.8364 121.345Z" stroke="#E7F0FF" stroke-width="4" mask="url(#path-1-inside-1_1_3)"/>
<path d="M53.8364 135.873C53.8364 138.704 51.5408 141 48.7091 141C45.8774 141 43.5818 138.704 43.5818 135.873C43.5818 133.041 45.8774 130.745 48.7091 130.745C51.5408 130.745 53.8364 133.041 53.8364 135.873Z" stroke="#E7F0FF" stroke-width="4" mask="url(#path-1-inside-1_1_3)"/>
<path d="M68.3636 5.12727C68.3636 7.95899 66.0681 10.2545 63.2364 10.2545C60.4047 10.2545 58.1091 7.95899 58.1091 5.12727C58.1091 2.29556 60.4047 0 63.2364 0C66.0681 0 68.3636 2.29556 68.3636 5.12727Z" stroke="#E7F0FF" stroke-width="4" mask="url(#path-1-inside-1_1_3)"/>
<path d="M68.3636 19.6545C68.3636 22.4863 66.0681 24.7818 63.2364 24.7818C60.4047 24.7818 58.1091 22.4863 58.1091 19.6545C58.1091 16.8228 60.4047 14.5273 63.2364 14.5273C66.0681 14.5273 68.3636 16.8228 68.3636 19.6545Z" stroke="#E7F0FF" stroke-width="4" mask="url(#path-1-inside-1_1_3)"/>
<path d="M68.3636 34.1818C68.3636 37.0135 66.0681 39.3091 63.2364 39.3091C60.4047 39.3091 58.1091 37.0135 58.1091 34.1818C58.1091 31.3501 60.4047 29.0545 63.2364 29.0545C66.0681 29.0545 68.3636 31.3501 68.3636 34.1818Z" stroke="#E7F0FF" stroke-width="4" mask="url(#path-1-inside-1_1_3)"/>
<path d="M68.3636 48.7091C68.3636 51.5408 66.0681 53.8364 63.2364 53.8364C60.4047 53.8364 58.1091 51.5408 58.1091 48.7091C58.1091 45.8774 60.4047 43.5818 63.2364 43.5818C66.0681 43.5818 68.3636 45.8774 68.3636 48.7091Z" stroke="#E7F0FF" stroke-width="4" mask="url(#path-1-inside-1_1_3)"/>
<path d="M68.3636 63.2364C68.3636 66.0681 66.0681 68.3636 63.2364 68.3636C60.4047 68.3636 58.1091 66.0681 58.1091 63.2364C58.1091 60.4047 60.4047 58.1091 63.2364 58.1091C66.0681 58.1091 68.3636 60.4047 68.3636 63.2364Z" stroke="#E7F0FF" stroke-width="4" mask="url(#path-1-inside-1_1_3)"/>
<path d="M68.3636 77.7636C68.3636 80.5954 66.0681 82.8909 63.2364 82.8909C60.4047 82.8909 58.1091 80.5954 58.1091 77.7636C58.1091 74.9319 60.4047 72.6364 63.2364 72.6364C66.0681 72.6364 68.3636 74.9319 68.3636 77.7636Z" stroke="#E7F0FF" stroke-width="4" mask="url(#path-1-inside-1_1_3)"/>
<path d="M68.3636 92.2909C68.3636 95.1226 66.0681 97.4182 63.2364 97.4182C60.4047 97.4182 58.1091 95.1226 58.1091 92.2909C58.1091 89.4592 60.4047 87.1636 63.2364 87.1636C66.0681 87.1636 68.3636 89.4592 68.3636 92.2909Z" stroke="#E7F0FF" stroke-width="4" mask="url(#path-1-inside-1_1_3)"/>
<path d="M68.3636 106.818C68.3636 109.65 66.0681 111.945 63.2364 111.945C60.4047 111.945 58.1091 109.65 58.1091 106.818C58.1091 103.986 60.4047 101.691 63.2364 101.691C66.0681 101.691 68.3636 103.986 68.3636 106.818Z" stroke="#E7F0FF" stroke-width="4" mask="url(#path-1-inside-1_1_3)"/>
<path d="M68.3636 121.345C68.3636 124.177 66.0681 126.473 63.2364 126.473C60.4047 126.473 58.1091 124.177 58.1091 121.345C58.1091 118.514 60.4047 116.218 63.2364 116.218C66.0681 116.218 68.3636 118.514 68.3636 121.345Z" stroke="#E7F0FF" stroke-width="4" mask="url(#path-1-inside-1_1_3)"/>
<path d="M68.3636 135.873C68.3636 138.704 66.0681 141 63.2364 141C60.4047 141 58.1091 138.704 58.1091 135.873C58.1091 133.041 60.4047 130.745 63.2364 130.745C66.0681 130.745 68.3636 133.041 68.3636 135.873Z" stroke="#E7F0FF" stroke-width="4" mask="url(#path-1-inside-1_1_3)"/>
<path d="M82.8909 5.12727C82.8909 7.95899 80.5954 10.2545 77.7636 10.2545C74.9319 10.2545 72.6364 7.95899 72.6364 5.12727C72.6364 2.29556 74.9319 0 77.7636 0C80.5954 0 82.8909 2.29556 82.8909 5.12727Z" stroke="#E7F0FF" stroke-width="4" mask="url(#path-1-inside-1_1_3)"/>
<path d="M82.8909 19.6545C82.8909 22.4863 80.5954 24.7818 77.7636 24.7818C74.9319 24.7818 72.6364 22.4863 72.6364 19.6545C72.6364 16.8228 74.9319 14.5273 77.7636 14.5273C80.5954 14.5273 82.8909 16.8228 82.8909 19.6545Z" stroke="#E7F0FF" stroke-width="4" mask="url(#path-1-inside-1_1_3)"/>
<path d="M82.8909 34.1818C82.8909 37.0135 80.5954 39.3091 77.7636 39.3091C74.9319 39.3091 72.6364 37.0135 72.6364 34.1818C72.6364 31.3501 74.9319 29.0545 77.7636 29.0545C80.5954 29.0545 82.8909 31.3501 82.8909 34.1818Z" stroke="#E7F0FF" stroke-width="4" mask="url(#path-1-inside-1_1_3)"/>
<path d="M82.8909 48.7091C82.8909 51.5408 80.5954 53.8364 77.7636 53.8364C74.9319 53.8364 72.6364 51.5408 72.6364 48.7091C72.6364 45.8774 74.9319 43.5818 77.7636 43.5818C80.5954 43.5818 82.8909 45.8774 82.8909 48.7091Z" stroke="#E7F0FF" stroke-width="4" mask="url(#path-1-inside-1_1_3)"/>
<path d="M82.8909 63.2364C82.8909 66.0681 80.5954 68.3636 77.7636 68.3636C74.9319 68.3636 72.6364 66.0681 72.6364 63.2364C72.6364 60.4047 74.9319 58.1091 77.7636 58.1091C80.5954 58.1091 82.8909 60.4047 82.8909 63.2364Z" stroke="#E7F0FF" stroke-width="4" mask="url(#path-1-inside-1_1_3)"/>
<path d="M82.8909 77.7636C82.8909 80.5954 80.5954 82.8909 77.7636 82.8909C74.9319 82.8909 72.6364 80.5954 72.6364 77.7636C72.6364 74.9319 74.9319 72.6364 77.7636 72.6364C80.5954 72.6364 82.8909 74.9319 82.8909 77.7636Z" stroke="#E7F0FF" stroke-width="4" mask="url(#path-1-inside-1_1_3)"/>
<path d="M82.8909 92.2909C82.8909 95.1226 80.5954 97.4182 77.7636 97.4182C74.9319 97.4182 72.6364 95.1226 72.6364 92.2909C72.6364 89.4592 74.9319 87.1636 77.7636 87.1636C80.5954 87.1636 82.8909 89.4592 82.8909 92.2909Z" stroke="#E7F0FF" stroke-width="4" mask="url(#path-1-inside-1_1_3)"/>
<path d="M82.8909 106.818C82.8909 109.65 80.5954 111.945 77.7636 111.945C74.9319 111.945 72.6364 109.65 72.6364 106.818C72.6364 103.986 74.9319 101.691 77.7636 101.691C80.5954 101.691 82.8909 103.986 82.8909 106.818Z" stroke="#E7F0FF" stroke-width="4" mask="url(#path-1-inside-1_1_3)"/>
<path d="M82.8909 121.345C82.8909 124.177 80.5954 126.473 77.7636 126.473C74.9319 126.473 72.6364 124.177 72.6364 121.345C72.6364 118.514 74.9319 116.218 77.7636 116.218C80.5954 116.218 82.8909 118.514 82.8909 121.345Z" stroke="#E7F0FF" stroke-width="4" mask="url(#path-1-inside-1_1_3)"/>
<path d="M82.8909 135.873C82.8909 138.704 80.5954 141 77.7636 141C74.9319 141 72.6364 138.704 72.6364 135.873C72.6364 133.041 74.9319 130.745 77.7636 130.745C80.5954 130.745 82.8909 133.041 82.8909 135.873Z" stroke="#E7F0FF" stroke-width="4" mask="url(#path-1-inside-1_1_3)"/>
<path d="M97.4182 5.12727C97.4182 7.95899 95.1226 10.2545 92.2909 10.2545C89.4592 10.2545 87.1636 7.95899 87.1636 5.12727C87.1636 2.29556 89.4592 0 92.2909 0C95.1226 0 97.4182 2.29556 97.4182 5.12727Z" stroke="#E7F0FF" stroke-width="4" mask="url(#path-1-inside-1_1_3)"/>
<path d="M97.4182 19.6545C97.4182 22.4863 95.1226 24.7818 92.2909 24.7818C89.4592 24.7818 87.1636 22.4863 87.1636 19.6545C87.1636 16.8228 89.4592 14.5273 92.2909 14.5273C95.1226 14.5273 97.4182 16.8228 97.4182 19.6545Z" stroke="#E7F0FF" stroke-width="4" mask="url(#path-1-inside-1_1_3)"/>
<path d="M97.4182 34.1818C97.4182 37.0135 95.1226 39.3091 92.2909 39.3091C89.4592 39.3091 87.1636 37.0135 87.1636 34.1818C87.1636 31.3501 89.4592 29.0545 92.2909 29.0545C95.1226 29.0545 97.4182 31.3501 97.4182 34.1818Z" stroke="#E7F0FF" stroke-width="4" mask="url(#path-1-inside-1_1_3)"/>
<path d="M97.4182 48.7091C97.4182 51.5408 95.1226 53.8364 92.2909 53.8364C89.4592 53.8364 87.1636 51.5408 87.1636 48.7091C87.1636 45.8774 89.4592 43.5818 92.2909 43.5818C95.1226 43.5818 97.4182 45.8774 97.4182 48.7091Z" stroke="#E7F0FF" stroke-width="4" mask="url(#path-1-inside-1_1_3)"/>
<path d="M97.4182 63.2364C97.4182 66.0681 95.1226 68.3636 92.2909 68.3636C89.4592 68.3636 87.1636 66.0681 87.1636 63.2364C87.1636 60.4047 89.4592 58.1091 92.2909 58.1091C95.1226 58.1091 97.4182 60.4047 97.4182 63.2364Z" stroke="#E7F0FF" stroke-width="4" mask="url(#path-1-inside-1_1_3)"/>
<path d="M97.4182 77.7636C97.4182 80.5954 95.1226 82.8909 92.2909 82.8909C89.4592 82.8909 87.1636 80.5954 87.1636 77.7636C87.1636 74.9319 89.4592 72.6364 92.2909 72.6364C95.1226 72.6364 97.4182 74.9319 97.4182 77.7636Z" stroke="#E7F0FF" stroke-width="4" mask="url(#path-1-inside-1_1_3)"/>
<path d="M97.4182 92.2909C97.4182 95.1226 95.1226 97.4182 92.2909 97.4182C89.4592 97.4182 87.1636 95.1226 87.1636 92.2909C87.1636 89.4592 89.4592 87.1636 92.2909 87.1636C95.1226 87.1636 97.4182 89.4592 97.4182 92.2909Z" stroke="#E7F0FF" stroke-width="4" mask="url(#path-1-inside-1_1_3)"/>
<path d="M97.4182 106.818C97.4182 109.65 95.1226 111.945 92.2909 111.945C89.4592 111.945 87.1636 109.65 87.1636 106.818C87.1636 103.986 89.4592 101.691 92.2909 101.691C95.1226 101.691 97.4182 103.986 97.4182 106.818Z" stroke="#E7F0FF" stroke-width="4" mask="url(#path-1-inside-1_1_3)"/>
<path d="M97.4182 121.345C97.4182 124.177 95.1226 126.473 92.2909 126.473C89.4592 126.473 87.1636 124.177 87.1636 121.345C87.1636 118.514 89.4592 116.218 92.2909 116.218C95.1226 116.218 97.4182 118.514 97.4182 121.345Z" stroke="#E7F0FF" stroke-width="4" mask="url(#path-1-inside-1_1_3)"/>
<path d="M97.4182 135.873C97.4182 138.704 95.1226 141 92.2909 141C89.4592 141 87.1636 138.704 87.1636 135.873C87.1636 133.041 89.4592 130.745 92.2909 130.745C95.1226 130.745 97.4182 133.041 97.4182 135.873Z" stroke="#E7F0FF" stroke-width="4" mask="url(#path-1-inside-1_1_3)"/>
<path d="M111.945 5.12727C111.945 7.95899 109.65 10.2545 106.818 10.2545C103.986 10.2545 101.691 7.95899 101.691 5.12727C101.691 2.29556 103.986 0 106.818 0C109.65 0 111.945 2.29556 111.945 5.12727Z" stroke="#E7F0FF" stroke-width="4" mask="url(#path-1-inside-1_1_3)"/>
<path d="M111.945 19.6545C111.945 22.4863 109.65 24.7818 106.818 24.7818C103.986 24.7818 101.691 22.4863 101.691 19.6545C101.691 16.8228 103.986 14.5273 106.818 14.5273C109.65 14.5273 111.945 16.8228 111.945 19.6545Z" stroke="#E7F0FF" stroke-width="4" mask="url(#path-1-inside-1_1_3)"/>
<path d="M111.945 34.1818C111.945 37.0135 109.65 39.3091 106.818 39.3091C103.986 39.3091 101.691 37.0135 101.691 34.1818C101.691 31.3501 103.986 29.0545 106.818 29.0545C109.65 29.0545 111.945 31.3501 111.945 34.1818Z" stroke="#E7F0FF" stroke-width="4" mask="url(#path-1-inside-1_1_3)"/>
<path d="M111.945 48.7091C111.945 51.5408 109.65 53.8364 106.818 53.8364C103.986 53.8364 101.691 51.5408 101.691 48.7091C101.691 45.8774 103.986 43.5818 106.818 43.5818C109.65 43.5818 111.945 45.8774 111.945 48.7091Z" stroke="#E7F0FF" stroke-width="4" mask="url(#path-1-inside-1_1_3)"/>
<path d="M111.945 63.2364C111.945 66.0681 109.65 68.3636 106.818 68.3636C103.986 68.3636 101.691 66.0681 101.691 63.2364C101.691 60.4047 103.986 58.1091 106.818 58.1091C109.65 58.1091 111.945 60.4047 111.945 63.2364Z" stroke="#E7F0FF" stroke-width="4" mask="url(#path-1-inside-1_1_3)"/>
<path d="M111.945 77.7636C111.945 80.5954 109.65 82.8909 106.818 82.8909C103.986 82.8909 101.691 80.5954 101.691 77.7636C101.691 74.9319 103.986 72.6364 106.818 72.6364C109.65 72.6364 111.945 74.9319 111.945 77.7636Z" stroke="#E7F0FF" stroke-width="4" mask="url(#path-1-inside-1_1_3)"/>
<path d="M111.945 92.2909C111.945 95.1226 109.65 97.4182 106.818 97.4182C103.986 97.4182 101.691 95.1226 101.691 92.2909C101.691 89.4592 103.986 87.1636 106.818 87.1636C109.65 87.1636 111.945 89.4592 111.945 92.2909Z" stroke="#E7F0FF" stroke-width="4" mask="url(#path-1-inside-1_1_3)"/>
<path d="M111.945 106.818C111.945 109.65 109.65 111.945 106.818 111.945C103.986 111.945 101.691 109.65 101.691 106.818C101.691 103.986 103.986 101.691 106.818 101.691C109.65 101.691 111.945 103.986 111.945 106.818Z" stroke="#E7F0FF" stroke-width="4" mask="url(#path-1-inside-1_1_3)"/>
<path d="M111.945 121.345C111.945 124.177 109.65 126.473 106.818 126.473C103.986 126.473 101.691 124.177 101.691 121.345C101.691 118.514 103.986 116.218 106.818 116.218C109.65 116.218 111.945 118.514 111.945 121.345Z" stroke="#E7F0FF" stroke-width="4" mask="url(#path-1-inside-1_1_3)"/>
<path d="M111.945 135.873C111.945 138.704 109.65 141 106.818 141C103.986 141 101.691 138.704 101.691 135.873C101.691 133.041 103.986 130.745 106.818 130.745C109.65 130.745 111.945 133.041 111.945 135.873Z" stroke="#E7F0FF" stroke-width="4" mask="url(#path-1-inside-1_1_3)"/>
<path d="M126.473 5.12727C126.473 7.95899 124.177 10.2545 121.345 10.2545C118.514 10.2545 116.218 7.95899 116.218 5.12727C116.218 2.29556 118.514 0 121.345 0C124.177 0 126.473 2.29556 126.473 5.12727Z" stroke="#E7F0FF" stroke-width="4" mask="url(#path-1-inside-1_1_3)"/>
<path d="M126.473 19.6545C126.473 22.4863 124.177 24.7818 121.345 24.7818C118.514 24.7818 116.218 22.4863 116.218 19.6545C116.218 16.8228 118.514 14.5273 121.345 14.5273C124.177 14.5273 126.473 16.8228 126.473 19.6545Z" stroke="#E7F0FF" stroke-width="4" mask="url(#path-1-inside-1_1_3)"/>
<path d="M126.473 34.1818C126.473 37.0135 124.177 39.3091 121.345 39.3091C118.514 39.3091 116.218 37.0135 116.218 34.1818C116.218 31.3501 118.514 29.0545 121.345 29.0545C124.177 29.0545 126.473 31.3501 126.473 34.1818Z" stroke="#E7F0FF" stroke-width="4" mask="url(#path-1-inside-1_1_3)"/>
<path d="M126.473 48.7091C126.473 51.5408 124.177 53.8364 121.345 53.8364C118.514 53.8364 116.218 51.5408 116.218 48.7091C116.218 45.8774 118.514 43.5818 121.345 43.5818C124.177 43.5818 126.473 45.8774 126.473 48.7091Z" stroke="#E7F0FF" stroke-width="4" mask="url(#path-1-inside-1_1_3)"/>
<path d="M126.473 63.2364C126.473 66.0681 124.177 68.3636 121.345 68.3636C118.514 68.3636 116.218 66.0681 116.218 63.2364C116.218 60.4047 118.514 58.1091 121.345 58.1091C124.177 58.1091 126.473 60.4047 126.473 63.2364Z" stroke="#E7F0FF" stroke-width="4" mask="url(#path-1-inside-1_1_3)"/>
<path d="M126.473 77.7636C126.473 80.5954 124.177 82.8909 121.345 82.8909C118.514 82.8909 116.218 80.5954 116.218 77.7636C116.218 74.9319 118.514 72.6364 121.345 72.6364C124.177 72.6364 126.473 74.9319 126.473 77.7636Z" stroke="#E7F0FF" stroke-width="4" mask="url(#path-1-inside-1_1_3)"/>
<path d="M126.473 92.2909C126.473 95.1226 124.177 97.4182 121.345 97.4182C118.514 97.4182 116.218 95.1226 116.218 92.2909C116.218 89.4592 118.514 87.1636 121.345 87.1636C124.177 87.1636 126.473 89.4592 126.473 92.2909Z" stroke="#E7F0FF" stroke-width="4" mask="url(#path-1-inside-1_1_3)"/>
<path d="M126.473 106.818C126.473 109.65 124.177 111.945 121.345 111.945C118.514 111.945 116.218 109.65 116.218 106.818C116.218 103.986 118.514 101.691 121.345 101.691C124.177 101.691 126.473 103.986 126.473 106.818Z" stroke="#E7F0FF" stroke-width="4" mask="url(#path-1-inside-1_1_3)"/>
<path d="M126.473 121.345C126.473 124.177 124.177 126.473 121.345 126.473C118.514 126.473 116.218 124.177 116.218 121.345C116.218 118.514 118.514 116.218 121.345 116.218C124.177 116.218 126.473 118.514 126.473 121.345Z" stroke="#E7F0FF" stroke-width="4" mask="url(#path-1-inside-1_1_3)"/>
<path d="M126.473 135.873C126.473 138.704 124.177 141 121.345 141C118.514 141 116.218 138.704 116.218 135.873C116.218 133.041 118.514 130.745 121.345 130.745C124.177 130.745 126.473 133.041 126.473 135.873Z" stroke="#E7F0FF" stroke-width="4" mask="url(#path-1-inside-1_1_3)"/>
<path d="M141 5.12727C141 7.95899 138.704 10.2545 135.873 10.2545C133.041 10.2545 130.745 7.95899 130.745 5.12727C130.745 2.29556 133.041 0 135.873 0C138.704 0 141 2.29556 141 5.12727Z" stroke="#E7F0FF" stroke-width="4" mask="url(#path-1-inside-1_1_3)"/>
<path d="M141 19.6545C141 22.4863 138.704 24.7818 135.873 24.7818C133.041 24.7818 130.745 22.4863 130.745 19.6545C130.745 16.8228 133.041 14.5273 135.873 14.5273C138.704 14.5273 141 16.8228 141 19.6545Z" stroke="#E7F0FF" stroke-width="4" mask="url(#path-1-inside-1_1_3)"/>
<path d="M141 34.1818C141 37.0135 138.704 39.3091 135.873 39.3091C133.041 39.3091 130.745 37.0135 130.745 34.1818C130.745 31.3501 133.041 29.0545 135.873 29.0545C138.704 29.0545 141 31.3501 141 34.1818Z" stroke="#E7F0FF" stroke-width="4" mask="url(#path-1-inside-1_1_3)"/>
<path d="M141 48.7091C141 51.5408 138.704 53.8364 135.873 53.8364C133.041 53.8364 130.745 51.5408 130.745 48.7091C130.745 45.8774 133.041 43.5818 135.873 43.5818C138.704 43.5818 141 45.8774 141 48.7091Z" stroke="#E7F0FF" stroke-width="4" mask="url(#path-1-inside-1_1_3)"/>
<path d="M141 63.2364C141 66.0681 138.704 68.3636 135.873 68.3636C133.041 68.3636 130.745 66.0681 130.745 63.2364C130.745 60.4047 133.041 58.1091 135.873 58.1091C138.704 58.1091 141 60.4047 141 63.2364Z" stroke="#E7F0FF" stroke-width="4" mask="url(#path-1-inside-1_1_3)"/>
<path d="M141 77.7636C141 80.5954 138.704 82.8909 135.873 82.8909C133.041 82.8909 130.745 80.5954 130.745 77.7636C130.745 74.9319 133.041 72.6364 135.873 72.6364C138.704 72.6364 141 74.9319 141 77.7636Z" stroke="#E7F0FF" stroke-width="4" mask="url(#path-1-inside-1_1_3)"/>
<path d="M141 92.2909C141 95.1226 138.704 97.4182 135.873 97.4182C133.041 97.4182 130.745 95.1226 130.745 92.2909C130.745 89.4592 133.041 87.1636 135.873 87.1636C138.704 87.1636 141 89.4592 141 92.2909Z" stroke="#E7F0FF" stroke-width="4" mask="url(#path-1-inside-1_1_3)"/>
<path d="M141 106.818C141 109.65 138.704 111.945 135.873 111.945C133.041 111.945 130.745 109.65 130.745 106.818C130.745 103.986 133.041 101.691 135.873 101.691C138.704 101.691 141 103.986 141 106.818Z" stroke="#E7F0FF" stroke-width="4" mask="url(#path-1-inside-1_1_3)"/>
<path d="M141 121.345C141 124.177 138.704 126.473 135.873 126.473C133.041 126.473 130.745 124.177 130.745 121.345C130.745 118.514 133.041 116.218 135.873 116.218C138.704 116.218 141 118.514 141 121.345Z" stroke="#E7F0FF" stroke-width="4" mask="url(#path-1-inside-1_1_3)"/>
<path d="M141 135.873C141 138.704 138.704 141 135.873 141C133.041 141 130.745 138.704 130.745 135.873C130.745 133.041 133.041 130.745 135.873 130.745C138.704 130.745 141 133.041 141 135.873Z" stroke="#E7F0FF" stroke-width="4" mask="url(#path-1-inside-1_1_3)"/>
</svg>
