<svg width="148" height="148" viewBox="0 0 148 148" fill="none" xmlns="http://www.w3.org/2000/svg">
<path d="M240.813 0.961327C244.423 18.1718 244.253 35.9607 240.317 53.0993C236.38 70.238 228.77 86.3178 218.013 100.228C207.255 114.139 193.606 125.548 178.008 133.669C162.411 141.79 145.236 146.428 127.671 147.263C110.106 148.098 92.5693 145.111 76.2715 138.507C59.9737 131.903 45.3037 121.84 33.2747 109.013C21.2456 96.1859 12.1442 80.9007 6.59914 64.2129C1.05406 47.5252 -0.802556 29.8326 1.15753 12.3573L48.2074 17.6345C47.0111 28.3003 48.1442 39.0986 51.5286 49.2836C54.9129 59.4686 60.4677 68.7977 67.8094 76.6264C75.1511 84.455 84.1047 90.5968 94.0517 94.6274C103.999 98.658 114.702 100.481 125.423 99.9716C136.143 99.4618 146.625 96.631 156.145 91.6748C165.665 86.7185 173.995 79.7549 180.561 71.2649C187.126 62.7749 191.771 52.9609 194.174 42.5006C196.576 32.0404 196.68 21.1833 194.477 10.6792L240.813 0.961327Z" fill="#FEFAD5"/>
</svg>
