<svg width="50" height="50" viewBox="0 0 50 50" fill="none" xmlns="http://www.w3.org/2000/svg">
<path d="M39.0625 0H10.9375C4.89687 0 0 4.89687 0 10.9375V39.0625C0 45.1031 4.89687 50 10.9375 50H39.0625C45.1031 50 50 45.1031 50 39.0625V10.9375C50 4.89687 45.1031 0 39.0625 0Z" fill="#73AF00"/>
<path d="M45.4097 24.9994L25 4.58969L4.5903 24.9994L25 45.4091L45.4097 24.9994Z" fill="#FFE15A"/>
<path d="M25 33.459C29.6718 33.459 33.459 29.6718 33.459 25C33.459 20.3282 29.6718 16.541 25 16.541C20.3282 16.541 16.541 20.3282 16.541 25C16.541 29.6718 20.3282 33.459 25 33.459Z" fill="#41479B"/>
<path d="M17.7414 20.6728C17.3423 21.3408 17.0342 22.0671 16.8306 22.838C21.5199 22.4851 28.4567 23.7969 32.872 28.0812C33.1602 27.3455 33.3504 26.5619 33.4218 25.7427C28.8627 21.9059 22.56 20.5414 17.7414 20.6728Z" fill="#F5F5F5"/>
<path d="M25.3505 27.8866L25.5757 28.5619L26.2876 28.5674C26.3798 28.5681 26.418 28.6857 26.3438 28.7404L25.7712 29.1634L25.9859 29.8421C26.0138 29.93 25.9137 30.0026 25.8387 29.949L25.2595 29.5351L24.6803 29.949C24.6053 30.0026 24.5053 29.9299 24.533 29.8421L24.7478 29.1634L24.1751 28.7405C24.101 28.6857 24.1392 28.5682 24.2313 28.5675L24.9433 28.562L25.1685 27.8867C25.1977 27.7992 25.3214 27.7992 25.3505 27.8866Z" fill="#F5F5F5"/>
<path d="M28.1171 29.6336L28.2141 29.9243L28.5205 29.9267C28.5601 29.927 28.5766 29.9777 28.5447 30.0012L28.2982 30.1832L28.3906 30.4753C28.4025 30.5131 28.3594 30.5444 28.3272 30.5213L28.0779 30.3432L27.8286 30.5213C27.7962 30.5443 27.7532 30.5131 27.7652 30.4753L27.8576 30.1832L27.6111 30.0012C27.5791 29.9777 27.5956 29.927 27.6353 29.9267L27.9417 29.9243L28.0387 29.6336C28.0514 29.596 28.1046 29.596 28.1171 29.6336Z" fill="#F5F5F5"/>
<path d="M24.1542 26.6038L24.2512 26.8945L24.5576 26.8969C24.5972 26.8972 24.6137 26.9479 24.5818 26.9714L24.3353 27.1534L24.4277 27.4455C24.4397 27.4833 24.3966 27.5147 24.3643 27.4915L24.115 27.3134L23.8657 27.4915C23.8334 27.5146 23.7904 27.4833 23.8023 27.4455L23.8947 27.1534L23.6482 26.9714C23.6163 26.9479 23.6328 26.8972 23.6724 26.8969L23.9788 26.8945L24.0757 26.6038C24.0884 26.5662 24.1416 26.5662 24.1542 26.6038Z" fill="#F5F5F5"/>
<path d="M18.787 26.2514L18.8839 26.5421L19.1903 26.5444C19.2299 26.5447 19.2464 26.5953 19.2145 26.6189L18.968 26.801L19.0604 27.093C19.0723 27.1308 19.0293 27.1622 18.997 27.139L18.7477 26.9609L18.4984 27.139C18.4661 27.1621 18.4231 27.1308 18.435 27.093L18.5275 26.801L18.281 26.6189C18.2491 26.5954 18.2656 26.5447 18.3052 26.5444L18.6116 26.5421L18.7085 26.2514C18.7211 26.2137 18.7745 26.2137 18.787 26.2514Z" fill="#F5F5F5"/>
<path d="M23.2769 29.5333L23.3739 29.824L23.6804 29.8264C23.72 29.8267 23.7365 29.8773 23.7046 29.9009L23.4581 30.0829L23.5505 30.375C23.5625 30.4128 23.5194 30.4441 23.4871 30.421L23.2378 30.2429L22.9885 30.421C22.9562 30.444 22.9132 30.4128 22.9251 30.375L23.0175 30.0829L22.771 29.9009C22.7391 29.8773 22.7556 29.8267 22.7952 29.8264L23.1016 29.824L23.1985 29.5333C23.2112 29.4957 23.2644 29.4957 23.2769 29.5333Z" fill="#F5F5F5"/>
<path d="M20.8065 26.0485L20.8858 26.2862L21.1364 26.2882C21.1688 26.2885 21.1823 26.3299 21.1562 26.3491L20.9546 26.4979L21.0302 26.7368C21.04 26.7678 21.0048 26.7933 20.9784 26.7745L20.7746 26.6288L20.5708 26.7745C20.5444 26.7933 20.5091 26.7678 20.5189 26.7368L20.5945 26.4979L20.3929 26.3491C20.3668 26.3299 20.3802 26.2885 20.4127 26.2882L20.6633 26.2862L20.7426 26.0485C20.7527 26.0178 20.7962 26.0178 20.8065 26.0485Z" fill="#F5F5F5"/>
<path d="M28.3323 21.1422L28.4314 21.4395L28.7448 21.4419C28.7853 21.4422 28.8022 21.494 28.7695 21.5181L28.5175 21.7042L28.612 22.003C28.6242 22.0417 28.5802 22.0737 28.5471 22.0501L28.2922 21.8679L28.0372 22.0501C28.0042 22.0737 27.9601 22.0417 27.9723 22.003L28.0669 21.7042L27.8148 21.5181C27.7822 21.494 27.799 21.4422 27.8395 21.4419L28.1529 21.4395L28.252 21.1422C28.265 21.1037 28.3194 21.1037 28.3323 21.1422Z" fill="#F5F5F5"/>
<path d="M19.1323 24.5946L19.2116 24.8323L19.4622 24.8343C19.4946 24.8346 19.5081 24.8759 19.482 24.8952L19.2804 25.044L19.356 25.2829C19.3658 25.3139 19.3306 25.3395 19.3042 25.3206L19.1002 25.1749L18.8964 25.3206C18.8701 25.3395 18.8348 25.3139 18.8446 25.2829L18.9202 25.044L18.7186 24.8952C18.6925 24.876 18.7059 24.8346 18.7384 24.8343L18.989 24.8323L19.0683 24.5946C19.0786 24.5639 19.122 24.5639 19.1323 24.5946Z" fill="#F5F5F5"/>
<path d="M20.342 27.9443L20.462 28.3043L20.8415 28.3072C20.8906 28.3076 20.911 28.3703 20.8715 28.3995L20.5662 28.6249L20.6807 28.9867C20.6955 29.0336 20.6422 29.0723 20.6022 29.0438L20.2935 28.8231L19.9848 29.0438C19.9448 29.0723 19.8915 29.0336 19.9063 28.9867L20.0207 28.6249L19.7154 28.3995C19.6759 28.3703 19.6963 28.3076 19.7454 28.3072L20.1249 28.3043L20.2449 27.9443C20.2606 27.8977 20.3265 27.8977 20.342 27.9443Z" fill="#F5F5F5"/>
<path d="M29.66 29.7091L29.7355 29.9355L29.9743 29.9374C30.0051 29.9376 30.018 29.977 29.9931 29.9954L29.801 30.1372L29.873 30.3648C29.8823 30.3943 29.8488 30.4186 29.8236 30.4007L29.6293 30.2618L29.4351 30.4007C29.4099 30.4186 29.3764 30.3942 29.3857 30.3648L29.4577 30.1372L29.2656 29.9954C29.2407 29.977 29.2536 29.9376 29.2844 29.9374L29.5232 29.9355L29.5987 29.7091C29.6087 29.6798 29.6502 29.6798 29.66 29.7091Z" fill="#F5F5F5"/>
<path d="M30.4952 27.9806L30.5922 28.2713L30.8986 28.2736C30.9383 28.2739 30.9548 28.3246 30.9228 28.3481L30.6764 28.5302L30.7687 28.8224C30.7808 28.8601 30.7377 28.8915 30.7054 28.8684L30.456 28.6902L30.2067 28.8684C30.1744 28.8914 30.1314 28.8601 30.1434 28.8224L30.2357 28.5302L29.9892 28.3481C29.9573 28.3246 29.9738 28.2739 30.0135 28.2736L30.3198 28.2713L30.4168 27.9806C30.4295 27.943 30.4827 27.943 30.4952 27.9806Z" fill="#F5F5F5"/>
</svg>
