<svg width="50" height="50" viewBox="0 0 50 50" fill="none" xmlns="http://www.w3.org/2000/svg">
<path d="M38.793 0H11.207V50H38.793V0Z" fill="#F5F5F5"/>
<path d="M10.9375 0C4.89688 0 0 4.89687 0 10.9375V39.0625C0 45.1031 4.89688 50 10.9375 50H11.2068V0H10.9375Z" fill="#FF4B55"/>
<path d="M39.0624 0H38.793V50H39.0624C45.103 50 49.9999 45.1031 49.9999 39.0625V10.9375C49.9999 4.89687 45.103 0 39.0624 0Z" fill="#FF4B55"/>
<path d="M30.2314 28.7851L35.347 25.862L34.1731 25.2751C33.8439 25.1104 33.6555 24.755 33.7042 24.39L34.086 21.5266L31.9203 22.1566C31.4419 22.2958 30.9454 22.0017 30.8378 21.5151L30.6304 20.5776L28.5969 22.9575C28.315 23.2874 27.7779 23.0353 27.8515 22.6078L28.7198 17.5582L27.3902 17.9219C27.0019 18.028 26.5918 17.8514 26.4022 17.4962L25.0021 14.8721V14.8683L25.0012 14.8702L25.0001 14.8683V14.8721L23.6 17.4962C23.4104 17.8514 23.0003 18.0281 22.612 17.9219L21.2824 17.5583L22.1508 22.6079C22.2243 23.0355 21.6872 23.2875 21.4054 22.9576L19.3719 20.5777L19.1645 21.5152C19.0568 22.0017 18.5604 22.2959 18.0819 22.1567L15.9162 21.5267L16.298 24.3901C16.3467 24.755 16.1583 25.1105 15.8291 25.2752L14.6553 25.8621L19.7708 28.7852C20.3007 29.088 20.5328 29.7303 20.3191 30.3018L19.8818 31.4715L24.2651 31.0973C24.5077 31.0766 24.7142 31.2719 24.707 31.5152L24.569 36.2069H25.4312L25.2932 31.5149C25.286 31.2716 25.4925 31.0763 25.7351 31.097L30.1204 31.4714L29.6831 30.3017C29.4694 29.7302 29.7017 29.088 30.2314 28.7851Z" fill="#FF4B55"/>
</svg>
