<svg width="50" height="50" viewBox="0 0 50 50" fill="none" xmlns="http://www.w3.org/2000/svg">
<path d="M39.0625 0H10.9375C4.89687 0 0 4.89687 0 10.9375V39.0625C0 45.1031 4.89687 50 10.9375 50H39.0625C45.1031 50 50 45.1031 50 39.0625V10.9375C50 4.89687 45.1031 0 39.0625 0Z" fill="#FF4B55"/>
<path d="M11.1348 8.51386L12.3772 12.2391L16.304 12.2695C16.8124 12.2734 17.0232 12.9223 16.6142 13.2243L13.4552 15.557L14.6397 19.3011C14.793 19.7858 14.2412 20.1868 13.8275 19.8911L10.6328 17.6076L7.43805 19.8911C7.02447 20.1867 6.47252 19.7857 6.62584 19.3011L7.81031 15.557L4.65133 13.2243C4.24234 12.9223 4.45318 12.2735 4.96158 12.2695L8.88834 12.2391L10.1307 8.51386C10.2918 8.03153 10.974 8.03153 11.1348 8.51386Z" fill="#FFE15A"/>
<path d="M25.3941 9.43183L26.2849 10.6467L27.7227 10.1971C27.9089 10.1389 28.062 10.3511 27.948 10.5094L27.068 11.732L27.9398 12.9605C28.0527 13.1196 27.8981 13.3308 27.7124 13.2714L26.2776 12.8122L25.3787 14.021C25.2623 14.1775 25.0137 14.0958 25.0129 13.9008L25.0062 12.3943L23.5788 11.913C23.3939 11.8507 23.3949 11.589 23.5801 11.5278L25.0107 11.056L25.0274 9.5497C25.0297 9.35459 25.2788 9.27451 25.3941 9.43183Z" fill="#FFE15A"/>
<path d="M19.9702 5.81064L21.4678 5.97343L22.1067 4.60918C22.1894 4.43252 22.4494 4.46279 22.4892 4.6538L22.7972 6.12842L24.2921 6.31445C24.4857 6.33857 24.5372 6.59512 24.3679 6.69199L23.0606 7.44053L23.3456 8.91973C23.3826 9.11123 23.1544 9.23955 23.01 9.1085L21.8941 8.09648L20.5753 8.82471C20.4046 8.91895 20.2122 8.7417 20.292 8.56377L20.9096 7.18974L19.8095 6.16054C19.6671 6.02744 19.7763 5.78955 19.9702 5.81064Z" fill="#FFE15A"/>
<path d="M22.3377 20.4099L21.4469 21.6247L20.0091 21.1751C19.8229 21.1169 19.6698 21.3291 19.7838 21.4874L20.6638 22.7101L19.792 23.9386C19.6791 24.0977 19.8336 24.3088 20.0194 24.2494L21.4542 23.7902L22.3531 24.999C22.4695 25.1556 22.7181 25.0738 22.7189 24.8788L22.7256 23.3724L24.153 22.891C24.3378 22.8287 24.3369 22.567 24.1517 22.506L22.7211 22.0342L22.7044 20.5278C22.7022 20.3326 22.453 20.2525 22.3377 20.4099Z" fill="#FFE15A"/>
<path d="M27.7618 17.0069L26.2641 17.1697L25.6252 15.8055C25.5425 15.6288 25.2826 15.6591 25.2427 15.85L24.9347 17.3246L23.4398 17.5106C23.2462 17.5348 23.1948 17.7913 23.364 17.8882L24.6713 18.6367L24.3863 20.1159C24.3494 20.3074 24.5775 20.4357 24.7219 20.3047L25.8378 19.2927L27.1566 20.0209C27.3273 20.1151 27.5198 19.9379 27.4399 19.76L26.8223 18.3859L27.9224 17.3567C28.0648 17.2237 27.9556 16.9858 27.7618 17.0069Z" fill="#FFE15A"/>
</svg>
