<svg width="50" height="50" viewBox="0 0 50 50" fill="none" xmlns="http://www.w3.org/2000/svg">
<path d="M39.8259 0.026947H10.1741C4.48975 0.418939 0 5.15351 0 10.9375V16.6757H50V10.9375C50 5.15351 45.5103 0.418939 39.8259 0.026947Z" fill="#FF9933"/>
<path d="M0 39.0625C0 44.8465 4.48984 49.5812 10.1742 49.9731H39.8258C45.5102 49.5812 50 44.8465 50 39.0625V33.3243H0V39.0625Z" fill="#138808"/>
<path d="M50 16.6758H0V33.3242H50V16.6758Z" fill="#F5F5F5"/>
<path d="M25 30.7078C21.8527 30.7078 19.2922 28.1474 19.2922 25C19.2922 21.8526 21.8527 19.2922 25 19.2922C28.1474 19.2922 30.7079 21.8526 30.7079 25C30.7079 28.1474 28.1474 30.7078 25 30.7078ZM25 20.3541C22.438 20.3541 20.3541 22.438 20.3541 25C20.3541 27.562 22.438 29.6459 25 29.6459C27.5621 29.6459 29.6459 27.562 29.6459 25C29.6459 22.438 27.5621 20.3541 25 20.3541Z" fill="#41479B"/>
<path d="M25.0001 25.647C25.3575 25.647 25.6472 25.3573 25.6472 25C25.6472 24.6426 25.3575 24.3529 25.0001 24.3529C24.6427 24.3529 24.353 24.6426 24.353 25C24.353 25.3573 24.6427 25.647 25.0001 25.647Z" fill="#41479B"/>
<path d="M25.0001 25.097L23.3557 25.2631L19.8232 25.097V24.9029L23.3557 24.7369L25.0001 24.9029V25.097Z" fill="#41479B"/>
<path d="M25 25.097L26.6444 25.2631L30.1769 25.097V24.9029L26.6444 24.7369L25 24.9029V25.097Z" fill="#41479B"/>
<path d="M24.9031 25L24.7371 23.3555L24.9031 19.8231H25.0972L25.2632 23.3555L25.0972 25H24.9031Z" fill="#41479B"/>
<path d="M24.9031 25L24.7371 26.6444L24.9031 30.1769H25.0972L25.2632 26.6444L25.0972 25H24.9031Z" fill="#41479B"/>
<path d="M24.9313 25.0686L23.6511 24.0232L21.2708 21.408L21.408 21.2708L24.0232 23.6512L25.0686 24.9313L24.9313 25.0686Z" fill="#41479B"/>
<path d="M24.9314 25.0686L25.9768 26.3488L28.592 28.7293L28.7293 28.592L26.3489 25.9767L25.0687 24.9313L24.9314 25.0686Z" fill="#41479B"/>
<path d="M24.9314 24.9313L25.9768 23.6512L28.592 21.2708L28.7293 21.408L26.3489 24.0232L25.0687 25.0686L24.9314 24.9313Z" fill="#41479B"/>
<path d="M24.9313 24.9313L23.6511 25.9767L21.2708 28.592L21.408 28.7293L24.0232 26.3488L25.0686 25.0686L24.9313 24.9313Z" fill="#41479B"/>
<path d="M25.0372 25.0896L23.5815 25.8724L20.2544 27.0708L20.1802 26.8914L23.3802 25.3862L24.963 24.9103L25.0372 25.0896Z" fill="#41479B"/>
<path d="M25.0371 25.0896L26.6199 24.6138L29.8199 23.1086L29.7457 22.9292L26.4186 24.1276L24.9629 24.9104L25.0371 25.0896Z" fill="#41479B"/>
<path d="M24.9104 25.0371L24.1276 23.5814L22.9292 20.2543L23.1086 20.1801L24.6138 23.3801L25.0896 24.9629L24.9104 25.0371Z" fill="#41479B"/>
<path d="M24.9104 25.0371L25.3863 26.6199L26.8915 29.8199L27.0708 29.7457L25.8724 26.4186L25.0897 24.9629L24.9104 25.0371Z" fill="#41479B"/>
<path d="M24.963 25.0896L23.3802 24.6138L20.1802 23.1086L20.2544 22.9292L23.5815 24.1276L25.0372 24.9104L24.963 25.0896Z" fill="#41479B"/>
<path d="M24.9629 25.0896L26.4186 25.8724L29.7457 27.0708L29.8199 26.8914L26.6199 25.3862L25.0371 24.9103L24.9629 25.0896Z" fill="#41479B"/>
<path d="M24.9104 24.9629L25.3863 23.3801L26.8915 20.1801L27.0708 20.2543L25.8724 23.5814L25.0897 25.0371L24.9104 24.9629Z" fill="#41479B"/>
<path d="M24.9104 24.9629L24.1276 26.4186L22.9292 29.7457L23.1086 29.8199L24.6138 26.6199L25.0896 25.0371L24.9104 24.9629Z" fill="#41479B"/>
<path d="M25 25.7087C25.3914 25.7087 25.7086 25.3914 25.7086 25C25.7086 24.6086 25.3914 24.2913 25 24.2913C24.6086 24.2913 24.2913 24.6086 24.2913 25C24.2913 25.3914 24.6086 25.7087 25 25.7087Z" fill="#F5F5F5"/>
<path d="M24.9999 25.5234C25.2889 25.5234 25.5232 25.2891 25.5232 25C25.5232 24.711 25.2889 24.4767 24.9999 24.4767C24.7109 24.4767 24.4766 24.711 24.4766 25C24.4766 25.2891 24.7109 25.5234 24.9999 25.5234Z" fill="#41479B"/>
</svg>
