<svg width="50" height="50" viewBox="0 0 50 50" fill="none" xmlns="http://www.w3.org/2000/svg">
<path d="M10.9375 0C4.89687 0 0 4.89687 0 10.9375V39.0625C0 45.1031 4.89687 50 10.9375 50H16.6667V0H10.9375Z" fill="#73AF00"/>
<path d="M33.334 0H16.667V50H33.334V0Z" fill="#F5F5F5"/>
<path d="M39.0625 0H33.3333V50H39.0625C45.1031 50 50 45.1031 50 39.0625V10.9375C50 4.89687 45.1031 0 39.0625 0Z" fill="#FF4B55"/>
<path d="M26.4868 25.7711L25 26.5145V27.258H25.7435L26.4868 25.7711Z" fill="#FFD250"/>
<path d="M25.0001 29.1166C24.7946 29.1166 24.6284 28.9504 24.6284 28.7449V27.258C24.6284 27.0526 24.7946 26.8864 25.0001 26.8864C25.2056 26.8864 25.3718 27.0526 25.3718 27.258V28.7449C25.3718 28.9503 25.2056 29.1166 25.0001 29.1166Z" fill="#00C3A0"/>
<path d="M25 27.6297C23.54 27.6297 22.1301 27.0663 21.0298 26.0434C20.8795 25.9036 20.8708 25.6684 21.0105 25.5181C21.1514 25.3682 21.3862 25.3602 21.5358 25.4988C22.4981 26.3937 23.7284 26.8862 25 26.8862C26.2716 26.8862 27.5018 26.3937 28.4642 25.4988C28.6141 25.3598 28.8489 25.3674 28.9894 25.5181C29.1292 25.6684 29.1205 25.9036 28.9702 26.0434C27.8699 27.0663 26.46 27.6297 25 27.6297Z" fill="#00C3A0"/>
<path d="M25.0001 29.1166C24.0472 29.1166 23.1241 28.8382 22.3306 28.3111L22.7422 27.6919C24.0839 28.5834 25.9163 28.5834 27.258 27.6919L27.6696 28.3111C26.8761 28.8382 25.953 29.1166 25.0001 29.1166Z" fill="#00AADC"/>
<path d="M24.4114 24.0984L23.5906 25.3685L23.4512 25.7866L25.5886 25.291L24.4114 24.0984Z" fill="#732D37"/>
<path d="M22.725 26.1951C21.7424 26.1951 20.563 25.3682 20.25 23.5256L20.9833 23.4015C21.2432 24.9337 22.1859 25.4528 22.7519 25.4514C22.9254 25.4467 23.1065 25.3867 23.1207 25.2641C23.1374 25.1174 23.1414 25.0825 22.7526 24.9512C22.5414 24.8797 22.3018 24.7987 22.1337 24.6064C21.4538 23.8299 22.3743 23.008 22.8165 22.6131C22.8945 22.5434 22.9269 22.4842 22.9186 22.4617C22.8942 22.3983 22.7483 22.3021 22.5839 22.3021C22.1116 22.3021 21.7533 22.0353 21.6491 21.6062C21.5409 21.1618 21.7453 20.6936 22.1345 20.4925L22.4757 21.1531C22.3846 21.2003 22.3482 21.3347 22.3715 21.4305C22.3806 21.469 22.4027 21.5586 22.5838 21.5586C23.039 21.5586 23.4721 21.8273 23.6129 22.1968C23.6731 22.3543 23.7639 22.7638 23.3116 23.1678C22.8233 23.6037 22.5312 23.9319 22.6931 24.1167C22.7297 24.1584 22.8869 24.2118 22.9907 24.2467C23.3254 24.36 23.9483 24.5705 23.859 25.3491C23.8031 25.8388 23.366 26.1786 22.7722 26.1945C22.7566 26.1947 22.7406 26.1951 22.725 26.1951Z" fill="#AAD264"/>
<path d="M25.7435 22.054C25.7435 22.054 26.4869 20.5672 25 19.8237C25 19.8237 30.204 19.0803 29.4605 25.7712L29.4602 25.7709C28.9723 25.3806 28.2479 24.6673 27.9892 24.0985L25.7434 22.7975V22.054H25.7435Z" fill="#874150"/>
<path d="M25 23.5408L28.7172 25.7711C28.7172 25.7711 28.7172 25.7711 27.2304 26.5146L25 24.2843V23.5408Z" fill="#732D37"/>
<path d="M23.5132 21.3106C23.9237 21.3106 24.2566 21.6434 24.2566 22.054L24.2559 22.0548C23.8124 22.4983 23.7024 23.1758 23.9829 23.7368L24.1509 24.0729C24.2209 24.2129 24.3131 24.3408 24.4238 24.4516L26.4869 26.5147V25.4872C26.4869 24.2072 26.1889 22.9449 25.6165 21.8001C25.2387 21.0445 24.4664 20.5672 23.6217 20.5672H23.5132V21.3106Z" fill="#783C46"/>
<path d="M23.5132 20.5671L22.7698 21.3105V22.054C22.7698 22.054 23.6542 21.6056 23.9522 21.4628C24.1605 21.363 24.1226 21.1268 24.0031 21.0132C23.91 20.9247 23.5132 20.5671 23.5132 20.5671Z" fill="#FFD250"/>
<path d="M25 30.6034C21.5156 30.6034 18.6809 27.7687 18.6809 24.2843H19.4244C19.4244 27.3589 21.9254 29.8601 25.0001 29.8601C28.0749 29.8601 30.5759 27.359 30.5759 24.2843H31.3194C31.3192 27.7687 28.4845 30.6034 25 30.6034Z" fill="#AAD264"/>
<path d="M19.4638 26.9948C19.7425 26.9948 19.9684 26.7689 19.9684 26.4902C19.9684 26.2116 19.7425 25.9857 19.4638 25.9857C19.1851 25.9857 18.9592 26.2116 18.9592 26.4902C18.9592 26.7689 19.1851 26.9948 19.4638 26.9948Z" fill="#FFE15A"/>
<path d="M20.5791 28.7761C20.8577 28.7761 21.0836 28.5502 21.0836 28.2715C21.0836 27.9928 20.8577 27.7669 20.5791 27.7669C20.3004 27.7669 20.0745 27.9928 20.0745 28.2715C20.0745 28.5502 20.3004 28.7761 20.5791 28.7761Z" fill="#FFE15A"/>
<path d="M22.3916 30.1237C22.6702 30.1237 22.8961 29.8978 22.8961 29.6192C22.8961 29.3405 22.6702 29.1146 22.3916 29.1146C22.1129 29.1146 21.887 29.3405 21.887 29.6192C21.887 29.8978 22.1129 30.1237 22.3916 30.1237Z" fill="#FFE15A"/>
<path d="M30.5888 26.9948C30.8675 26.9948 31.0934 26.7689 31.0934 26.4902C31.0934 26.2116 30.8675 25.9857 30.5888 25.9857C30.3101 25.9857 30.0842 26.2116 30.0842 26.4902C30.0842 26.7689 30.3101 26.9948 30.5888 26.9948Z" fill="#FFE15A"/>
<path d="M29.4736 28.7761C29.7523 28.7761 29.9782 28.5502 29.9782 28.2715C29.9782 27.9928 29.7523 27.7669 29.4736 27.7669C29.1949 27.7669 28.969 27.9928 28.969 28.2715C28.969 28.5502 29.1949 28.7761 29.4736 28.7761Z" fill="#FFE15A"/>
<path d="M27.6611 30.1237C27.9398 30.1237 28.1657 29.8978 28.1657 29.6192C28.1657 29.3405 27.9398 29.1146 27.6611 29.1146C27.3824 29.1146 27.1565 29.3405 27.1565 29.6192C27.1565 29.8978 27.3824 30.1237 27.6611 30.1237Z" fill="#FFE15A"/>
<path d="M25.3717 29.4883H24.6282C24.2177 29.4883 23.8848 29.1555 23.8848 28.7448C23.8848 28.3343 24.2176 28.0014 24.6282 28.0014H25.3717C25.7822 28.0014 26.1151 28.3342 26.1151 28.7448C26.1151 29.1555 25.7823 29.4883 25.3717 29.4883Z" fill="#FFB478"/>
<path d="M27.9893 24.0984C28.2371 24.8264 28.7637 25.4924 29.4603 25.7708L29.4606 25.7711C30.204 19.0803 25 19.8236 25 19.8236C28.7172 19.8236 27.9893 24.0984 27.9893 24.0984Z" fill="#9B4B5A"/>
</svg>
