<svg width="50" height="50" viewBox="0 0 50 50" fill="none" xmlns="http://www.w3.org/2000/svg">
<path d="M39.0625 0H10.9375C4.89687 0 0 4.89687 0 10.9375V39.0625C0 45.1031 4.89687 50 10.9375 50H39.0625C45.1031 50 50 45.1031 50 39.0625V10.9375C50 4.89687 45.1031 0 39.0625 0Z" fill="#C8414B"/>
<path d="M50 10.4131H0V39.5869H50V10.4131Z" fill="#FFD250"/>
<path d="M21.7863 25.0402L22.5925 21.7526C22.6667 21.4499 22.4125 21.1627 22.0703 21.1627H21.5024C21.1602 21.1627 20.9059 21.4499 20.9803 21.7526L21.7863 25.0402Z" fill="#C8414B"/>
<path d="M22.7366 23.3164H20.835V30.6406H22.7366V23.3164Z" fill="#F5F5F5"/>
<path d="M23.2129 22.4551H20.3604V23.3167H23.2129V22.4551Z" fill="#FAB446"/>
<path d="M23.212 25.04H18.458V25.9017H23.212V25.04Z" fill="#C8414B"/>
<path d="M23.2126 28.4869L20.3601 27.6252V26.7636L23.2126 27.6252V28.4869Z" fill="#C8414B"/>
<path d="M7.52411 25.0402L8.33026 21.7526C8.40448 21.4499 8.15028 21.1627 7.80809 21.1627H7.24022C6.89804 21.1627 6.64374 21.4499 6.71805 21.7526L7.52411 25.0402Z" fill="#C8414B"/>
<path d="M10.8519 22.4552C10.3268 22.4552 9.90112 22.8409 9.90112 23.3169V28.9178C9.90112 29.9647 10.9793 31.9336 14.6552 31.9336C18.3311 31.9336 19.4093 29.9646 19.4093 28.9178V23.3169C19.4093 22.841 18.9836 22.4552 18.4585 22.4552H10.8519Z" fill="#F5F5F5"/>
<path d="M14.6552 26.7636H9.90112V23.3603C9.90112 22.8604 10.3064 22.4552 10.8063 22.4552H14.6552V26.7636Z" fill="#C8414B"/>
<path d="M14.6553 26.7636H19.4094V28.8091C19.4094 30.0588 18.3963 31.072 17.1465 31.072H16.9182C15.6685 31.072 14.6553 30.0589 14.6553 28.8091V26.7636Z" fill="#C8414B"/>
<path d="M9.90112 26.7636H14.6552V28.8091C14.6552 30.0588 13.6421 31.072 12.3923 31.072H12.164C10.9143 31.072 9.90112 30.0589 9.90112 28.8091C9.90112 28.8091 9.90112 26.7636 9.90112 26.7636Z" fill="#FAB446"/>
<path d="M13.7044 30.6314V26.7636H12.7537V31.0285C13.1072 30.9634 13.4268 30.8215 13.7044 30.6314Z" fill="#C8414B"/>
<path d="M11.8028 31.0285V26.7636H10.8521V30.6314C11.1297 30.8215 11.4492 30.9634 11.8028 31.0285Z" fill="#C8414B"/>
<path d="M13.7041 25.04H10.8516V25.9017H13.7041V25.04Z" fill="#FFB441"/>
<path d="M13.7041 23.3164H10.8516V24.1781H13.7041V23.3164Z" fill="#FAB446"/>
<path d="M13.2288 23.8291H11.3271V25.3901H13.2288V23.8291Z" fill="#FAB446"/>
<path d="M8.4749 23.3164H6.57324V30.6406H8.4749V23.3164Z" fill="#F5F5F5"/>
<path d="M8.9502 30.21H6.09766V31.0716H8.9502V30.21Z" fill="#FAB446"/>
<path d="M8.9502 22.4551H6.09766V23.3167H8.9502V22.4551Z" fill="#FAB446"/>
<path d="M9.42529 31.0723H5.62207V31.9339H9.42529V31.0723Z" fill="#5064AA"/>
<path d="M23.6875 30.21H20.835V31.0716H23.6875V30.21Z" fill="#FAB446"/>
<path d="M23.688 31.0723H19.8848V31.9339H23.688V31.0723Z" fill="#5064AA"/>
<path d="M17.5078 21.5938H11.8027V22.4554H17.5078V21.5938Z" fill="#FAB446"/>
<path d="M15.1305 19.0088H14.1797V21.5938H15.1305V19.0088Z" fill="#FFB441"/>
<path d="M13.7042 20.301C12.9178 20.301 12.2781 19.7212 12.2781 19.0085C12.2781 18.2958 12.9178 17.716 13.7042 17.716C14.4907 17.716 15.1304 18.2958 15.1304 19.0085C15.1304 19.7212 14.4907 20.301 13.7042 20.301ZM13.7042 18.5776C13.4419 18.5776 13.2289 18.7708 13.2289 19.0085C13.2289 19.2462 13.4419 19.4394 13.7042 19.4394C13.9666 19.4394 14.1796 19.2462 14.1796 19.0085C14.1796 18.7708 13.9666 18.5776 13.7042 18.5776Z" fill="#F5F5F5"/>
<path d="M15.6059 20.301C14.8194 20.301 14.1797 19.7212 14.1797 19.0085C14.1797 18.2958 14.8194 17.716 15.6059 17.716C16.3923 17.716 17.032 18.2958 17.032 19.0085C17.032 19.7212 16.3924 20.301 15.6059 20.301ZM15.6059 18.5776C15.3436 18.5776 15.1305 18.7708 15.1305 19.0085C15.1305 19.2462 15.3436 19.4394 15.6059 19.4394C15.8682 19.4394 16.0813 19.2462 16.0813 19.0085C16.0813 18.7708 15.8682 18.5776 15.6059 18.5776Z" fill="#F5F5F5"/>
<path d="M17.5075 21.1627C16.721 21.1627 16.0813 20.5829 16.0813 19.8702C16.0813 19.1575 16.721 18.5777 17.5075 18.5777C18.2939 18.5777 18.9337 19.1575 18.9337 19.8702C18.9337 20.5829 18.2939 21.1627 17.5075 21.1627ZM17.5075 19.4394C17.2452 19.4394 17.0321 19.6325 17.0321 19.8702C17.0321 20.1079 17.2452 20.3011 17.5075 20.3011C17.7698 20.3011 17.9829 20.1079 17.9829 19.8702C17.9829 19.6324 17.7698 19.4394 17.5075 19.4394Z" fill="#F5F5F5"/>
<path d="M11.8026 21.1627C11.0162 21.1627 10.3765 20.5829 10.3765 19.8702C10.3765 19.1575 11.0162 18.5777 11.8026 18.5777C12.5891 18.5777 13.2288 19.1575 13.2288 19.8702C13.2288 20.5829 12.5891 21.1627 11.8026 21.1627ZM11.8026 19.4394C11.5403 19.4394 11.3272 19.6325 11.3272 19.8702C11.3272 20.1079 11.5403 20.3011 11.8026 20.3011C12.0649 20.3011 12.278 20.1079 12.278 19.8702C12.278 19.6324 12.0649 19.4394 11.8026 19.4394Z" fill="#F5F5F5"/>
<path d="M17.5076 28.4869V28.9178C17.5076 29.1554 17.2943 29.3486 17.0322 29.3486C16.7701 29.3486 16.5568 29.1554 16.5568 28.9178V28.4869H17.5076ZM18.4584 27.6252H15.606V28.9177C15.606 29.6304 16.2458 30.2102 17.0321 30.2102C17.8186 30.2102 18.4584 29.6303 18.4584 28.9177V27.6252Z" fill="#FAB446"/>
<path d="M17.0778 25.9019H16.9865C16.4866 25.9019 16.0813 25.4966 16.0813 24.9967V24.222C16.0813 23.7221 16.4866 23.3168 16.9865 23.3168H17.0778C17.5777 23.3168 17.983 23.7221 17.983 24.222V24.9967C17.983 25.4967 17.5777 25.9019 17.0778 25.9019Z" fill="#FFA0D2"/>
<path d="M14.6552 28.0562C15.4428 28.0562 16.0813 27.4775 16.0813 26.7637C16.0813 26.0499 15.4428 25.4712 14.6552 25.4712C13.8675 25.4712 13.229 26.0499 13.229 26.7637C13.229 27.4775 13.8675 28.0562 14.6552 28.0562Z" fill="#5064AA"/>
<path d="M15.1305 17.2852H14.1797V19.8702H15.1305V17.2852Z" fill="#FAB446"/>
<path d="M11.8028 21.5936L10.8521 20.7318L11.409 20.2271C12.2699 19.4468 13.4377 19.0085 14.6553 19.0085C15.8729 19.0085 17.0406 19.4469 17.9016 20.2271L18.4585 20.7318L17.5077 21.5936H11.8028Z" fill="#C8414B"/>
<path d="M14.6553 21.1623C14.9179 21.1623 15.1307 20.9694 15.1307 20.7314C15.1307 20.4935 14.9179 20.3006 14.6553 20.3006C14.3928 20.3006 14.1799 20.4935 14.1799 20.7314C14.1799 20.9694 14.3928 21.1623 14.6553 21.1623Z" fill="#FFD250"/>
<path d="M12.754 21.1623C13.0165 21.1623 13.2293 20.9694 13.2293 20.7314C13.2293 20.4935 13.0165 20.3006 12.754 20.3006C12.4914 20.3006 12.2786 20.4935 12.2786 20.7314C12.2786 20.9694 12.4914 21.1623 12.754 21.1623Z" fill="#FFD250"/>
<path d="M16.5567 21.1623C16.8192 21.1623 17.0321 20.9694 17.0321 20.7314C17.0321 20.4935 16.8192 20.3006 16.5567 20.3006C16.2941 20.3006 16.0813 20.4935 16.0813 20.7314C16.0813 20.9694 16.2941 21.1623 16.5567 21.1623Z" fill="#FFD250"/>
<path d="M10.8517 25.04H6.09766V25.9017H10.8517V25.04Z" fill="#C8414B"/>
<path d="M6.0979 28.4869L8.95034 27.6252V26.7636L6.0979 27.6252V28.4869Z" fill="#C8414B"/>
</svg>
