<svg width="50" height="50" viewBox="0 0 50 50" fill="none" xmlns="http://www.w3.org/2000/svg">
<path d="M0.419922 7.91016C0.146484 8.86719 0 9.88281 0 10.9375V15.8008H50V10.9375C50 9.89258 49.8535 8.87695 49.5801 7.91016H0.419922Z" fill="#F5F5F5"/>
<path d="M0 39.0625C0 40.1074 0.146484 41.123 0.419922 42.0898H49.5703C49.8438 41.1328 49.9902 40.1172 49.9902 39.0625V34.1992H0V39.0625Z" fill="#F5F5F5"/>
<path d="M10.1758 49.9707H39.8242C44.4727 49.6484 48.3301 46.416 49.5703 42.0801H0.419922C1.66992 46.4258 5.51758 49.6484 10.1758 49.9707Z" fill="#FF4B55"/>
<path d="M39.8242 0.0292969H10.1758C5.52734 0.351562 1.66992 3.58398 0.429688 7.91992H49.5801C48.3301 3.57422 44.4824 0.351562 39.8242 0.0292969Z" fill="#FF4B55"/>
<path d="M50 15.8008H0V34.1992H50V15.8008Z" fill="#41479B"/>
</svg>
