<svg xmlns="http://www.w3.org/2000/svg" fill="#2f73f2" viewBox="0 0 24 24"><defs><style>.cls-1,.cls-2{opacity:0.3;}</style></defs><g id="Finance"><g id="fin001-010"><g id="fin008"><g class="cls-1"><path d="M3.24,5,16.93,2.06a1,1,0,0,1,1.19.77L19.23,8Z"/></g><path class="cls-2" d="M13,13h0a3,3,0,0,1,3-3h5a1,1,0,0,1,1,1v4a1,1,0,0,1-1,1H16A3,3,0,0,1,13,13Zm3-1.5A1.5,1.5,0,1,0,17.5,13,1.5,1.5,0,0,0,16,11.5Z"/><path d="M13,13a3,3,0,0,1,3-3h5V7a2,2,0,0,0-2-2H3A1,1,0,0,0,2,6V20a1,1,0,0,0,1,1H19a2,2,0,0,0,2-2V16H16A3,3,0,0,1,13,13Z"/></g></g></g></svg>