<svg width="41" height="32" viewBox="0 0 41 32" fill="none" xmlns="http://www.w3.org/2000/svg">
<rect y="6.53931" width="41" height="23" rx="2" fill="#C0D5FB"/>
<path fill-rule="evenodd" clip-rule="evenodd" d="M37.8359 4.24402H9.12573L34.0863 0.0421001C35.7202 -0.232949 37.2677 0.868589 37.5427 2.50245L37.8359 4.24402Z" fill="#2F73F2"/>
<rect x="4" y="10.5393" width="4" height="3" fill="white"/>
<rect x="4" y="16.5393" width="4" height="3" fill="white"/>
<rect x="4" y="22.5393" width="4" height="3" fill="white"/>
<path d="M20.3906 21.7809C20.546 21.7814 20.7002 21.7542 20.846 21.7007L25.3144 19.9799L25.6562 19.0763C25.6706 19.0381 25.6929 19.0034 25.7215 18.9743C25.7502 18.9452 25.7846 18.9225 25.8226 18.9075L30.6949 16.9836C30.7515 16.9612 30.8137 16.957 30.8728 16.9715C30.9319 16.9861 30.985 17.0187 31.0247 17.0648C31.0645 17.1109 31.0889 17.1682 31.0945 17.2289C31.1002 17.2895 31.0868 17.3503 31.0563 17.403L30.8644 17.7343L36.3624 15.5576C36.5306 15.491 36.6746 15.3748 36.7753 15.2245C36.876 15.0742 36.9286 14.8968 36.9261 14.7158C36.9236 14.5349 36.8662 14.359 36.7615 14.2115C36.6567 14.064 36.5096 13.9518 36.3396 13.8898C35.5739 13.6118 34.7593 13.4941 33.9463 13.5438C33.1332 13.5936 32.3391 13.8098 31.613 14.1792L20.5961 19.6033C20.5493 19.6263 20.4972 19.6364 20.4452 19.6326C20.3932 19.6287 20.3431 19.6111 20.3002 19.5814L17.6935 17.7796C17.3125 17.5157 16.8721 17.35 16.4115 17.2973C15.951 17.2446 15.4846 17.3066 15.0538 17.4776L14.3545 17.7545L18.5146 21.1321C19.042 21.5663 19.7077 21.7965 20.3906 21.7809Z" fill="#2F73F2"/>
<path d="M25.7085 25.4687L30.1271 17.8379L26.1583 19.4048L23.8652 25.4687H25.7085Z" fill="#2F73F2"/>
<path d="M27.6346 15.4848L22.7976 13.7078L21.8081 14.3096L25.3649 16.6022L27.6346 15.4848Z" fill="#2F73F2"/>
</svg>
