<svg width="200" height="44" viewBox="0 0 200 44" fill="none" xmlns="http://www.w3.org/2000/svg">
<path d="M0 0H15.3963V36.3C15.3963 40.5526 11.9497 44 7.69815 44C3.44658 44 0 40.5526 0 36.3V0Z" fill="#2F73F2"/>
<path d="M15.3963 20.9V0L20.895 6.55869e-08C26.665 1.3441e-07 31.3425 4.67862 31.3425 10.45C31.3425 16.2214 26.665 20.9 20.895 20.9H15.3963Z" fill="#46C4FF"/>
<path d="M0 0H15.3963V20.9H0V0Z" fill="#35B4F6"/>
<path d="M45.7259 30.8V9.713H49.972V27.0875H59.2955V30.8H45.7259Z" fill="#102D47"/>
<path d="M67.9199 31.0673C65.9008 31.0673 64.238 30.3743 62.9315 28.9883C61.6448 27.6023 61.0015 25.8005 61.0015 23.5829C61.0015 21.4049 61.6448 19.613 62.9315 18.2072C64.238 16.7816 65.8711 16.0688 67.8308 16.0688C69.6322 16.0688 71.0575 16.7024 72.1066 17.9696L72.166 17.9399V16.2767H76.0558V30.8H72.3441V29.0774L72.2848 29.0477C71.2356 30.3941 69.7807 31.0673 67.9199 31.0673ZM68.6622 27.5627C69.6916 27.5627 70.5626 27.1964 71.2752 26.4638C71.9878 25.7312 72.3441 24.7808 72.3441 23.6126C72.3441 22.4444 71.9878 21.4742 71.2752 20.702C70.5824 19.9298 69.7114 19.5437 68.6622 19.5437C67.5933 19.5437 66.7025 19.9199 65.9899 20.6723C65.297 21.4049 64.9506 22.385 64.9506 23.6126C64.9506 24.7808 65.297 25.7312 65.9899 26.4638C66.6827 27.1964 67.5735 27.5627 68.6622 27.5627Z" fill="#102D47"/>
<path d="M79.456 30.8V16.2767H83.3458V18.1478H83.4052C84.5731 16.7618 86.1171 16.0688 88.0373 16.0688C91.541 16.0688 93.2929 18.1082 93.2929 22.187V30.8H89.4032V23.1671C89.4032 21.8405 89.1755 20.9099 88.7202 20.3753C88.2649 19.8209 87.5622 19.5437 86.612 19.5437C85.6025 19.5437 84.8008 19.8902 84.2069 20.5832C83.6328 21.2564 83.3458 22.2365 83.3458 23.5235V30.8H79.456Z" fill="#102D47"/>
<path d="M102.732 31.0673C100.713 31.0673 99.0501 30.3743 97.7436 28.9883C96.4371 27.6023 95.7839 25.8005 95.7839 23.5829C95.7839 21.4049 96.4371 19.613 97.7436 18.2072C99.0501 16.7816 100.683 16.0688 102.643 16.0688C104.484 16.0688 105.949 16.7024 107.037 17.9696H107.097V8.9408H110.957V30.8H107.245V29.018H107.216C106.166 30.3842 104.672 31.0673 102.732 31.0673ZM100.772 26.4638C101.465 27.1964 102.356 27.5627 103.445 27.5627C104.533 27.5627 105.434 27.1964 106.147 26.4638C106.879 25.7312 107.245 24.7808 107.245 23.6126C107.245 22.4444 106.889 21.4742 106.176 20.702C105.464 19.9298 104.553 19.5437 103.445 19.5437C102.376 19.5437 101.485 19.9199 100.772 20.6723C100.079 21.4049 99.733 22.385 99.733 23.6126C99.733 24.761 100.079 25.7114 100.772 26.4638Z" fill="#102D47"/>
<path d="M116.696 14.3165C115.983 14.3165 115.39 14.0888 114.914 13.6334C114.459 13.1582 114.231 12.584 114.231 11.9108C114.231 11.2574 114.459 10.703 114.914 10.2476C115.39 9.7724 115.983 9.5348 116.696 9.5348C117.389 9.5348 117.973 9.7724 118.448 10.2476C118.923 10.703 119.161 11.2574 119.161 11.9108C119.161 12.584 118.923 13.1582 118.448 13.6334C117.973 14.0888 117.389 14.3165 116.696 14.3165ZM114.707 30.8V16.2767H118.596V30.8H114.707Z" fill="#102D47"/>
<path d="M122.351 30.8V16.2767H126.24V18.1478H126.3C127.468 16.7618 129.012 16.0688 130.932 16.0688C134.436 16.0688 136.188 18.1082 136.188 22.187V30.8H132.298V23.1671C132.298 21.8405 132.07 20.9099 131.615 20.3753C131.16 19.8209 130.457 19.5437 129.507 19.5437C128.497 19.5437 127.695 19.8902 127.101 20.5832C126.527 21.2564 126.24 22.2365 126.24 23.5235V30.8H122.351Z" fill="#102D47"/>
<path d="M146.072 36.9182C143.815 36.9182 141.836 36.4331 140.133 35.4629L141.054 32.1662C142.677 33.077 144.251 33.5324 145.775 33.5324C147.062 33.5324 148.061 33.2255 148.774 32.6117C149.487 31.9979 149.843 31.2356 149.843 30.3248V28.8695H149.784C148.715 29.9783 147.309 30.5327 145.567 30.5327C143.568 30.5327 141.915 29.8694 140.608 28.5428C139.302 27.2162 138.649 25.5035 138.649 23.4047C138.649 21.2663 139.282 19.514 140.549 18.1478C141.816 16.7618 143.419 16.0688 145.359 16.0688C147.101 16.0688 148.556 16.643 149.724 17.7914H149.784V16.2767H153.673V29.1368C153.673 34.3244 151.14 36.9182 146.072 36.9182ZM143.637 26.0183C144.33 26.6915 145.211 27.0281 146.28 27.0281C147.349 27.0281 148.22 26.6816 148.893 25.9886C149.586 25.2758 149.932 24.365 149.932 23.2562C149.932 22.1672 149.586 21.2861 148.893 20.6129C148.2 19.9199 147.329 19.5734 146.28 19.5734C145.191 19.5734 144.3 19.9199 143.607 20.6129C142.934 21.3059 142.598 22.1969 142.598 23.2859C142.598 24.4145 142.944 25.3253 143.637 26.0183Z" fill="#102D47"/>
<path d="M157.075 36.6806V16.2767H160.965V17.9399H161.024C162.093 16.6925 163.548 16.0688 165.389 16.0688C167.369 16.0688 169.002 16.7816 170.288 18.2072C171.595 19.613 172.248 21.4049 172.248 23.5829C172.248 25.8005 171.595 27.6023 170.288 28.9883C168.982 30.3743 167.309 31.0673 165.27 31.0673C163.489 31.0673 162.073 30.4337 161.024 29.1665L160.965 29.1962V36.6806H157.075ZM161.856 26.4638C162.588 27.1964 163.499 27.5627 164.587 27.5627C165.676 27.5627 166.567 27.1964 167.26 26.4638C167.953 25.7114 168.299 24.761 168.299 23.6126C168.299 22.385 167.943 21.4049 167.23 20.6723C166.517 19.9199 165.627 19.5437 164.558 19.5437C163.449 19.5437 162.539 19.9298 161.826 20.702C161.133 21.4544 160.787 22.4246 160.787 23.6126C160.787 24.7808 161.143 25.7312 161.856 26.4638Z" fill="#102D47"/>
<path d="M175.017 30.8V16.2767H178.907V18.3854H178.966C180.114 16.841 181.569 16.0688 183.331 16.0688H183.628V20.3159C183.351 20.2961 183.005 20.2862 182.589 20.2862C181.421 20.2862 180.51 20.6426 179.857 21.3554C179.224 22.0484 178.907 22.9592 178.907 24.0878V30.8H175.017Z" fill="#102D47"/>
<path d="M192.31 31.0673C190.013 31.0673 188.153 30.3644 186.727 28.9586C185.302 27.5528 184.589 25.751 184.589 23.5532C184.589 21.3752 185.302 19.5833 186.727 18.1775C188.153 16.7717 190.013 16.0688 192.31 16.0688C194.566 16.0688 196.407 16.7618 197.832 18.1478C199.277 19.5338 200 21.3356 200 23.5532C200 25.7708 199.277 27.5825 197.832 28.9883C196.407 30.3743 194.566 31.0673 192.31 31.0673ZM192.31 27.5627C193.359 27.5627 194.24 27.1865 194.952 26.4341C195.685 25.6817 196.051 24.7214 196.051 23.5532C196.051 22.3652 195.695 21.4049 194.982 20.6723C194.269 19.9199 193.378 19.5437 192.31 19.5437C191.201 19.5437 190.29 19.9298 189.578 20.702C188.885 21.4544 188.539 22.4048 188.539 23.5532C188.539 24.7016 188.885 25.6619 189.578 26.4341C190.29 27.1865 191.201 27.5627 192.31 27.5627Z" fill="#102D47"/>
</svg>
